RobotoExtremo-opszmin-wghtmin-wdthmin-GRADmin.ufo
<glyph name="exclam" format="2">
  <advance width="519"/>
  <unicode hex="0021"/>
  <outline>
    <contour>
      <point x="202.0" y="61.22000000000001" type="qcurve" smooth="yes"/>
      <point x="202.0" y="95.58000000000001"/>
      <point x="232.22" y="144.44000000000003"/>
      <point x="259.68" y="144.44000000000003" type="qcurve" smooth="yes"/>
      <point x="287.64" y="144.44000000000003"/>
      <point x="317.36" y="95.58000000000001"/>
      <point x="317.36" y="61.22000000000001" type="qcurve" smooth="yes"/>
      <point x="317.36" y="26.860000000000007"/>
      <point x="287.64" y="-22.0"/>
      <point x="259.68" y="-22.0" type="qcurve" smooth="yes"/>
      <point x="232.22" y="-22.0"/>
      <point x="202.0" y="26.860000000000007"/>
    </contour>
    <contour>
      <point x="233.14000000000001" y="389.90000000000003" type="line"/>
      <point x="227.34" y="1456.0" type="line"/>
      <point x="291.02000000000004" y="1456.0" type="line"/>
      <point x="285.72" y="389.90000000000003" type="line"/>
    </contour>
  </outline>
</glyph>
<glyph name="numbersign" format="2">
  <advance width="1389"/>
  <unicode hex="0023"/>
  <outline>
    <contour>
      <point x="236.76" y="-20.0" type="line"/>
      <point x="730.56" y="1428.0" type="line"/>
      <point x="791.56" y="1428.0" type="line"/>
      <point x="298.76000000000005" y="-20.0" type="line"/>
    </contour>
    <contour>
      <point x="649.0" y="-20.0" type="line"/>
      <point x="1142.12" y="1428.0" type="line"/>
      <point x="1204.1200000000001" y="1428.0" type="line"/>
      <point x="711.0" y="-20.0" type="line"/>
    </contour>
    <contour>
      <point x="81.60000000000002" y="444.8" type="line"/>
      <point x="81.60000000000002" y="515.12" type="line"/>
      <point x="1235.2" y="515.12" type="line"/>
      <point x="1235.2" y="444.8" type="line"/>
    </contour>
    <contour>
      <point x="205.68" y="892.88" type="line"/>
      <point x="205.68" y="963.2" type="line"/>
      <point x="1359.28" y="963.2" type="line"/>
      <point x="1359.28" y="892.88" type="line"/>
    </contour>
  </outline>
</glyph>
<glyph name="dollar" format="2">
  <advance width="1177"/>
  <unicode hex="0024"/>
  <outline>
    <contour>
      <point x="258.48" y="417.24" type="qcurve" smooth="yes"/>
      <point x="258.48" y="429.24" type="line"/>
      <point x="314.65999999999997" y="429.24" type="line"/>
      <point x="314.65999999999997" y="417.24" type="line" smooth="yes"/>
      <point x="309.15999999999997" y="252.27876923076923"/>
      <point x="480.28" y="67.25999999999999"/>
      <point x="631.52" y="67.25999999999999" type="qcurve" smooth="yes"/>
      <point x="789.72" y="67.25999999999999"/>
      <point x="947.0" y="246.0"/>
      <point x="947.0" y="387.0" type="qcurve" smooth="yes"/>
      <point x="947.0" y="536.5"/>
      <point x="767.5" y="670.5"/>
      <point x="641.0" y="713.0" type="qcurve" smooth="yes"/>
      <point x="461.0" y="768.5"/>
      <point x="279.5" y="937.0"/>
      <point x="279.5" y="1091.0" type="qcurve" smooth="yes"/>
      <point x="279.5" y="1257.0"/>
      <point x="456.9126923076923" y="1456.0"/>
      <point x="623.0" y="1456.0" type="qcurve" smooth="yes"/>
      <point x="792.4531230283911" y="1456.0"/>
      <point x="978.1600000000001" y="1227.08"/>
      <point x="978.1600000000001" y="1044.76" type="qcurve" smooth="yes"/>
      <point x="978.1600000000001" y="1032.76" type="line"/>
      <point x="915.64" y="1032.76" type="line"/>
      <point x="915.64" y="1044.76" type="line" smooth="yes"/>
      <point x="915.64" y="1198.2266666666667"/>
      <point x="763.4" y="1384.24"/>
      <point x="624.0" y="1384.24" type="qcurve" smooth="yes"/>
      <point x="478.18" y="1384.24"/>
      <point x="346.5" y="1233.5"/>
      <point x="346.5" y="1084.0" type="qcurve" smooth="yes"/>
      <point x="346.5" y="961.0"/>
      <point x="465.5" y="841.0"/>
      <point x="657.0" y="780.0" type="qcurve" smooth="yes"/>
      <point x="852.0" y="716.5"/>
      <point x="1005.0" y="540.0"/>
      <point x="1005.0" y="379.0" type="qcurve" smooth="yes"/>
      <point x="1005.0" y="203.0"/>
      <point x="808.809372128637" y="0.0"/>
      <point x="631.52" y="0.0" type="qcurve" smooth="yes"/>
      <point x="455.3847503782148" y="0.0"/>
      <point x="258.48" y="212.96"/>
    </contour>
    <contour>
      <point x="585.56" y="-110.0" type="line"/>
      <point x="585.56" y="698.0" type="line"/>
      <point x="651.96" y="698.0" type="line"/>
      <point x="651.96" y="90.0" type="line"/>
      <point x="647.16" y="80.0" type="line"/>
      <point x="647.16" y="-110.0" type="line"/>
    </contour>
    <contour>
      <point x="581.0" y="698.0" type="line"/>
      <point x="581.0" y="1346.0" type="line"/>
      <point x="585.16" y="1356.0" type="line"/>
      <point x="585.16" y="1646.0" type="line"/>
      <point x="644.76" y="1646.0" type="line"/>
      <point x="644.76" y="698.0" type="line"/>
    </contour>
  </outline>
</glyph>
<glyph name="ampersand" format="2">
  <advance width="1026"/>
  <unicode hex="0026"/>
  <outline>
    <contour>
      <point x="80.0" y="380.0" type="qcurve" smooth="yes"/>
      <point x="80.0" y="520.14"/>
      <point x="206.62" y="709.32"/>
      <point x="365.36" y="817.56" type="qcurve" smooth="yes"/>
      <point x="487.26" y="907.48" type="line" smooth="yes"/>
      <point x="557.16" y="957.0"/>
      <point x="635.02" y="1081.22"/>
      <point x="635.02" y="1172.6" type="qcurve" smooth="yes"/>
      <point x="635.02" y="1282.02"/>
      <point x="545.62" y="1423.3999999999999"/>
      <point x="461.05999999999995" y="1423.3999999999999" type="qcurve" smooth="yes"/>
      <point x="375.08000000000004" y="1423.3999999999999"/>
      <point x="274.48" y="1272.02"/>
      <point x="274.48" y="1152.8" type="qcurve" smooth="yes"/>
      <point x="274.48" y="1076.02"/>
      <point x="328.64000000000004" y="931.0"/>
      <point x="418.85999999999996" y="807.4" type="qcurve" smooth="yes"/>
      <point x="1004.26" y="0.0" type="line"/>
      <point x="926.24" y="0.0" type="line"/>
      <point x="367.74" y="773.64" type="line" smooth="yes"/>
      <point x="263.46" y="917.8199999999999"/>
      <point x="209.89999999999998" y="1062.6"/>
      <point x="209.89999999999998" y="1152.8" type="qcurve" smooth="yes"/>
      <point x="209.89999999999998" y="1307.54"/>
      <point x="349.43999999999994" y="1486.0"/>
      <point x="461.05999999999995" y="1486.0" type="qcurve" smooth="yes"/>
      <point x="570.4" y="1486.0"/>
      <point x="705.02" y="1320.14"/>
      <point x="705.02" y="1173.1200000000001" type="qcurve" smooth="yes"/>
      <point x="705.02" y="1072.3"/>
      <point x="606.88" y="916.38"/>
      <point x="531.0" y="857.66" type="qcurve" smooth="yes"/>
      <point x="399.79999999999995" y="762.4" type="line" smooth="yes"/>
      <point x="256.26404125761496" y="663.6560275050766"/>
      <point x="145.38000000000005" y="488.56"/>
      <point x="145.38000000000005" y="382.4" type="qcurve" smooth="yes"/>
      <point x="145.38000000000005" y="235.90000000000003"/>
      <point x="302.09999999999997" y="42.60000000000001"/>
      <point x="433.12" y="42.60000000000001" type="qcurve" smooth="yes"/>
      <point x="616.0600000000001" y="42.60000000000001"/>
      <point x="881.78" y="385.3"/>
      <point x="881.78" y="674.0" type="qcurve"/>
      <point x="946.9000000000001" y="674.0" type="line"/>
      <point x="946.9000000000001" y="380.0"/>
      <point x="650.9599999999999" y="-20.0"/>
      <point x="433.12" y="-20.0" type="qcurve" smooth="yes"/>
      <point x="266.32" y="-20.0"/>
      <point x="80.0" y="209.0"/>
    </contour>
  </outline>
</glyph>
<glyph name="quotesingle" format="2">
  <advance width="314"/>
  <unicode hex="0027"/>
  <outline>
    <contour>
      <point x="125.60000000000001" y="1104.5" type="line"/>
      <point x="115.0" y="1366.06" type="line"/>
      <point x="115.0" y="1456.0" type="line"/>
      <point x="202.3" y="1456.0" type="line"/>
      <point x="202.3" y="1366.06" type="line"/>
      <point x="190.70000000000005" y="1104.5" type="line"/>
    </contour>
  </outline>
</glyph>
<glyph name="parenleft" format="2">
  <advance width="600"/>
  <unicode hex="0028"/>
  <outline>
    <contour>
      <point x="539.2" y="-436.0" type="line"/>
      <point x="371.3" y="-355.38"/>
      <point x="124.0" y="72.4"/>
      <point x="124.0" y="515.0" type="qcurve" smooth="yes"/>
      <point x="124.0" y="525.0" type="line" smooth="yes"/>
      <point x="124.0" y="925.1"/>
      <point x="364.3" y="1399.38"/>
      <point x="539.2" y="1476.0" type="qcurve"/>
      <point x="539.2" y="1450.1" type="line"/>
      <point x="403.5550048703524" y="1382.0884419441966"/>
      <point x="187.00000000000003" y="958.6"/>
      <point x="187.00000000000003" y="532.0" type="qcurve" smooth="yes"/>
      <point x="187.00000000000003" y="508.0" type="line" smooth="yes"/>
      <point x="187.00000000000003" y="46.400000000000034"/>
      <point x="409.0550048703524" y="-335.08844194419646"/>
      <point x="539.2" y="-408.09999999999997" type="qcurve"/>
    </contour>
  </outline>
</glyph>
<glyph name="parenright" format="2">
  <advance width="600"/>
  <unicode hex="0029"/>
  <outline>
    <contour>
      <point x="60.400000000000006" y="-436.0" type="qcurve"/>
      <point x="60.400000000000006" y="-405.09999999999997" type="line"/>
      <point x="191.54" y="-332.14"/>
      <point x="412.0" y="46.400000000000034"/>
      <point x="412.0" y="508.0" type="qcurve" smooth="yes"/>
      <point x="412.0" y="532.0" type="line" smooth="yes"/>
      <point x="412.0" y="958.6"/>
      <point x="191.54" y="1371.1399999999999"/>
      <point x="60.400000000000006" y="1444.1" type="qcurve"/>
      <point x="60.400000000000006" y="1476.0" type="line"/>
      <point x="227.5" y="1394.94"/>
      <point x="476.0" y="925.1"/>
      <point x="476.0" y="525.0" type="qcurve" smooth="yes"/>
      <point x="476.0" y="515.0" type="line" smooth="yes"/>
      <point x="476.0" y="72.4"/>
      <point x="227.5" y="-354.94"/>
    </contour>
  </outline>
</glyph>
<glyph name="asterisk" format="2">
  <advance width="995"/>
  <unicode hex="002A"/>
  <outline>
    <contour>
      <point x="52.0" y="1122.54" type="line"/>
      <point x="69.62" y="1187.8799999999999" type="line"/>
      <point x="471.15999999999997" y="1053.5" type="line"/>
      <point x="468.40000000000003" y="1476.0" type="line"/>
      <point x="527.8" y="1476.0" type="line"/>
      <point x="525.54" y="1053.5" type="line"/>
      <point x="926.5799999999999" y="1187.8799999999999" type="line"/>
      <point x="943.6999999999998" y="1122.54" type="line"/>
      <point x="541.12" y="996.9200000000001" type="line"/>
      <point x="792.76" y="657.08" type="line"/>
      <point x="744.9399999999999" y="617.78" type="line"/>
      <point x="498.0999999999999" y="961.38" type="line"/>
      <point x="251.26000000000005" y="617.78" type="line"/>
      <point x="203.94" y="657.08" type="line"/>
      <point x="455.08" y="996.9200000000001" type="line"/>
    </contour>
  </outline>
</glyph>
<glyph name="plus" format="2">
  <advance width="1462"/>
  <unicode hex="002B"/>
  <outline>
    <contour>
      <point x="230.12" y="644.3" type="line"/>
      <point x="230.12" y="708.7" type="line"/>
      <point x="1231.88" y="708.7" type="line"/>
      <point x="1231.88" y="644.3" type="line"/>
    </contour>
    <contour>
      <point x="699.22" y="117.28000000000003" type="line"/>
      <point x="699.22" y="1230.72" type="line"/>
      <point x="762.78" y="1230.72" type="line"/>
      <point x="762.78" y="117.28000000000003" type="line"/>
    </contour>
  </outline>
</glyph>
<glyph name="comma" format="2">
  <advance width="504"/>
  <unicode hex="002C"/>
  <outline>
    <contour>
      <point x="178.44" y="-134.85999999999999" type="line"/>
      <point x="200.39999999999998" y="-96.35999999999999"/>
      <point x="222.5" y="-9.659999999999997"/>
      <point x="222.5" y="46.0" type="qcurve" smooth="yes"/>
      <point x="222.5" y="147.0" type="line"/>
      <point x="302.65999999999997" y="147.0" type="line"/>
      <point x="302.65999999999997" y="46.0" type="line" smooth="yes"/>
      <point x="302.65999999999997" y="-24.379999999999995"/>
      <point x="266.18" y="-127.46000000000001"/>
      <point x="232.16000000000003" y="-169.6" type="qcurve"/>
    </contour>
  </outline>
</glyph>
<glyph name="hyphen" format="2">
  <advance width="526"/>
  <unicode hex="002D"/>
  <outline>
    <contour>
      <point x="30.0" y="611.1800000000001" type="line"/>
      <point x="30.0" y="671.28" type="line"/>
      <point x="496.02" y="671.28" type="line"/>
      <point x="496.02" y="611.1800000000001" type="line"/>
    </contour>
  </outline>
</glyph>
<glyph name="period" format="2">
  <advance width="470"/>
  <unicode hex="002E"/>
  <outline>
    <contour>
      <point x="177.0" y="62.0" type="qcurve" smooth="yes"/>
      <point x="177.0" y="96.44"/>
      <point x="207.66" y="145.5"/>
      <point x="236.06000000000003" y="145.5" type="qcurve" smooth="yes"/>
      <point x="262.96" y="145.5"/>
      <point x="292.12" y="96.44"/>
      <point x="292.12" y="61.0" type="qcurve" smooth="yes"/>
      <point x="292.12" y="27.060000000000006"/>
      <point x="262.96" y="-22.0"/>
      <point x="235.06000000000003" y="-22.0" type="qcurve" smooth="yes"/>
      <point x="207.66" y="-22.0"/>
      <point x="177.0" y="27.060000000000006"/>
    </contour>
  </outline>
</glyph>
<glyph name="slash" format="2">
  <advance width="461"/>
  <unicode hex="002F"/>
  <outline>
    <contour>
      <point x="-85.0" y="-125.0" type="line"/>
      <point x="486.48" y="1456.0" type="line"/>
      <point x="547.6" y="1456.0" type="line"/>
      <point x="-24.19999999999999" y="-125.0" type="line"/>
    </contour>
  </outline>
</glyph>
<glyph name="zero" format="2">
  <advance width="1075"/>
  <unicode hex="0030"/>
  <outline>
    <contour>
      <point x="177.5" y="431.0" type="qcurve" smooth="yes"/>
      <point x="177.5" y="1035.0" type="line" smooth="yes"/>
      <point x="177.5" y="1266.5"/>
      <point x="363.5" y="1486.0"/>
      <point x="537.0" y="1486.0" type="qcurve" smooth="yes"/>
      <point x="710.5" y="1486.0"/>
      <point x="897.5" y="1266.5"/>
      <point x="897.5" y="1035.0" type="qcurve" smooth="yes"/>
      <point x="897.5" y="431.0" type="line" smooth="yes"/>
      <point x="897.5" y="200.5"/>
      <point x="710.5" y="-30.0"/>
      <point x="537.0" y="-30.0" type="qcurve" smooth="yes"/>
      <point x="363.5" y="-30.0"/>
      <point x="177.5" y="200.5"/>
    </contour>
    <contour>
      <point x="243.0" y="431.0" type="line" smooth="yes"/>
      <point x="243.0" y="226.0"/>
      <point x="389.0" y="38.5"/>
      <point x="537.0" y="38.5" type="qcurve" smooth="yes"/>
      <point x="685.5" y="38.5"/>
      <point x="832.5" y="226.0"/>
      <point x="832.5" y="431.0" type="qcurve" smooth="yes"/>
      <point x="832.5" y="1035.0" type="line" smooth="yes"/>
      <point x="832.5" y="1220.0"/>
      <point x="685.5" y="1417.5"/>
      <point x="537.0" y="1417.5" type="qcurve" smooth="yes"/>
      <point x="389.0" y="1417.5"/>
      <point x="243.0" y="1220.0"/>
      <point x="243.0" y="1035.0" type="qcurve" smooth="yes"/>
    </contour>
  </outline>
</glyph>
<glyph name="one" format="2">
  <advance width="1075"/>
  <unicode hex="0031"/>
  <outline>
    <contour>
      <point x="566.0" y="0.0" type="line"/>
      <point x="566.0" y="1402" type="line"/>
      <point x="196.0" y="1276.0" type="line"/>
      <point x="196.0" y="1335.0" type="line"/>
      <point x="589" y="1476.0" type="line"/>
      <point x="631" y="1476.0" type="line"/>
      <point x="631" y="0.0" type="line"/>
    </contour>
  </outline>
</glyph>
<glyph name="two" format="2">
  <advance width="1075"/>
  <unicode hex="0032"/>
  <outline>
    <contour>
      <point x="172.0" y="0.0" type="line"/>
      <point x="172.0" y="67" type="line"/>
      <point x="660.0" y="704" type="line" smooth="yes"/>
      <point x="737.0" y="804"/>
      <point x="838.0" y="1004.0"/>
      <point x="838.0" y="1117" type="qcurve" smooth="yes"/>
      <point x="838.0" y="1251"/>
      <point x="685" y="1418"/>
      <point x="543" y="1418" type="qcurve" smooth="yes"/>
      <point x="405" y="1418"/>
      <point x="229" y="1222.0"/>
      <point x="229" y="1026.0" type="qcurve" smooth="yes"/>
      <point x="229" y="1015.0" type="line"/>
      <point x="162" y="1015.0" type="line"/>
      <point x="162" y="1025.0" type="line" smooth="yes"/>
      <point x="162" y="1237"/>
      <point x="374" y="1486.0"/>
      <point x="534" y="1486.0" type="qcurve" smooth="yes"/>
      <point x="713" y="1486.0"/>
      <point x="903.0" y="1287.0"/>
      <point x="903.0" y="1127.0" type="qcurve" smooth="yes"/>
      <point x="903.0" y="1000"/>
      <point x="815" y="813"/>
      <point x="708.0" y="672.0" type="qcurve" smooth="yes"/>
      <point x="249.0" y="68" type="line"/>
      <point x="920.0" y="68" type="line"/>
      <point x="920.0" y="0.0" type="line"/>
    </contour>
  </outline>
</glyph>
<glyph name="three" format="2">
  <advance width="1075"/>
  <unicode hex="0033"/>
  <outline>
    <contour>
      <point x="131.0" y="385.0" type="qcurve" smooth="yes"/>
      <point x="131.0" y="395.0" type="line"/>
      <point x="196.0" y="395.0" type="line"/>
      <point x="196.0" y="385.0" type="line" smooth="yes"/>
      <point x="196.0" y="212.0"/>
      <point x="372.0" y="34.0"/>
      <point x="512.0" y="34.0" type="qcurve" smooth="yes"/>
      <point x="659.0" y="34.0"/>
      <point x="823" y="224.0"/>
      <point x="823" y="391.0" type="qcurve" smooth="yes"/>
      <point x="823" y="565"/>
      <point x="613" y="725.0"/>
      <point x="466.0" y="725.0" type="qcurve" smooth="yes"/>
      <point x="363.0" y="725.0" type="line"/>
      <point x="363.0" y="797" type="line"/>
      <point x="456.0" y="797" type="line" smooth="yes"/>
      <point x="624.0" y="797"/>
      <point x="770" y="971"/>
      <point x="770" y="1102.0" type="qcurve" smooth="yes"/>
      <point x="770" y="1250"/>
      <point x="641" y="1419"/>
      <point x="512.0" y="1419" type="qcurve" smooth="yes"/>
      <point x="391.0" y="1419"/>
      <point x="234.0" y="1243"/>
      <point x="234.0" y="1095.0" type="qcurve" smooth="yes"/>
      <point x="234.0" y="1085.0" type="line"/>
      <point x="169.0" y="1085.0" type="line"/>
      <point x="169.0" y="1095.0" type="line" smooth="yes"/>
      <point x="169.0" y="1267.0"/>
      <point x="368" y="1486.0"/>
      <point x="518" y="1486.0" type="qcurve" smooth="yes"/>
      <point x="675.0" y="1486.0"/>
      <point x="837.0" y="1269.0"/>
      <point x="837.0" y="1098.0" type="qcurve" smooth="yes"/>
      <point x="837.0" y="976.0"/>
      <point x="716" y="805.0"/>
      <point x="611.0" y="769" type="qcurve"/>
      <point x="611.0" y="765" type="line"/>
      <point x="734" y="742"/>
      <point x="891.0" y="541.0"/>
      <point x="891.0" y="372" type="qcurve" smooth="yes"/>
      <point x="891.0" y="213.0"/>
      <point x="698.0" y="-30.0"/>
      <point x="517.0" y="-30.0" type="qcurve" smooth="yes"/>
      <point x="347" y="-30.0"/>
      <point x="131.0" y="192.0"/>
    </contour>
  </outline>
</glyph>
<glyph name="four" format="2">
  <advance width="1075"/>
  <unicode hex="0034"/>
  <outline>
    <contour>
      <point x="706" y="0.0" type="line"/>
      <point x="706" y="391" type="line"/>
      <point x="706" y="400.0" type="line"/>
      <point x="706" y="1327.0" type="line"/>
      <point x="699.0" y="1327.0" type="line"/>
      <point x="164.0" y="429" type="line"/>
      <point x="726" y="429" type="line"/>
      <point x="736.0" y="429" type="line"/>
      <point x="969" y="429" type="line"/>
      <point x="969" y="368.0" type="line"/>
      <point x="113.0" y="368.0" type="line"/>
      <point x="113.0" y="451.0" type="line"/>
      <point x="718.0" y="1456.0" type="line"/>
      <point x="767.0" y="1456.0" type="line"/>
      <point x="767.0" y="0.0" type="line"/>
    </contour>
  </outline>
</glyph>
<glyph name="five" format="2">
  <advance width="1075"/>
  <unicode hex="0035"/>
  <outline>
    <contour>
      <point x="142.0" y="370.0" type="qcurve" smooth="yes"/>
      <point x="142.0" y="380.0" type="line"/>
      <point x="208" y="380.0" type="line"/>
      <point x="208" y="370.0" type="line" smooth="yes"/>
      <point x="208" y="214.0"/>
      <point x="389" y="35.0"/>
      <point x="528" y="35.0" type="qcurve" smooth="yes"/>
      <point x="672.0" y="35.0"/>
      <point x="842" y="256"/>
      <point x="842" y="468.0" type="qcurve" smooth="yes"/>
      <point x="842" y="660"/>
      <point x="673" y="852"/>
      <point x="549" y="852" type="qcurve" smooth="yes"/>
      <point x="453" y="852"/>
      <point x="283" y="752"/>
      <point x="249" y="695.0" type="qcurve"/>
      <point x="196.0" y="717.0" type="line"/>
      <point x="268.0" y="1456.0" type="line"/>
      <point x="847" y="1456.0" type="line"/>
      <point x="847" y="1397.0" type="line"/>
      <point x="315.0" y="1397.0" type="line"/>
      <point x="255.0" y="776" type="line"/>
      <point x="301" y="834.0"/>
      <point x="466.0" y="919"/>
      <point x="565" y="919" type="qcurve" smooth="yes"/>
      <point x="708" y="919"/>
      <point x="910" y="676"/>
      <point x="910" y="470.0" type="qcurve" smooth="yes"/>
      <point x="910" y="250.0"/>
      <point x="710" y="-30.0"/>
      <point x="528" y="-30.0" type="qcurve" smooth="yes"/>
      <point x="354" y="-30.0"/>
      <point x="142.0" y="205.0"/>
    </contour>
  </outline>
</glyph>
<glyph name="six" format="2">
  <advance width="1075"/>
  <unicode hex="0036"/>
  <outline>
    <contour>
      <point x="137.0" y="614.0" type="qcurve" smooth="yes"/>
      <point x="137.0" y="644.0" type="line" smooth="yes"/>
      <point x="137.0" y="1021.5"/>
      <point x="518.0" y="1486.0"/>
      <point x="786.5" y="1486.0" type="qcurve" smooth="yes"/>
      <point x="804.5" y="1486.0" type="line"/>
      <point x="804.5" y="1420.5" type="line"/>
      <point x="786.5" y="1420.5" type="line" smooth="yes"/>
      <point x="557.5" y="1420.5"/>
      <point x="201.5" y="1011.5"/>
      <point x="201.5" y="654.0" type="qcurve" smooth="yes"/>
      <point x="201.5" y="604.0" type="line" smooth="yes"/>
      <point x="201.5" y="297.0"/>
      <point x="401.5" y="32.5"/>
      <point x="563.5" y="32.5" type="qcurve" smooth="yes"/>
      <point x="723.0" y="32.5"/>
      <point x="893.0" y="267.5"/>
      <point x="893.0" y="465.0" type="qcurve" smooth="yes"/>
      <point x="893.0" y="649.5"/>
      <point x="714.0" y="861.5"/>
      <point x="563.5" y="860.5" type="qcurve" smooth="yes"/>
      <point x="412.0" y="859.5"/>
      <point x="200.0" y="620.0"/>
      <point x="200.0" y="465.0" type="qcurve"/>
      <point x="161.0" y="465.0" type="line"/>
      <point x="161.0" y="668.5"/>
      <point x="404.0" y="923.5"/>
      <point x="573.0" y="923.5" type="qcurve" smooth="yes"/>
      <point x="756.0" y="923.5"/>
      <point x="958.0" y="670.5"/>
      <point x="958.0" y="465.0" type="qcurve" smooth="yes"/>
      <point x="958.0" y="245.0"/>
      <point x="738.5" y="-30.0"/>
      <point x="563.5" y="-30.0" type="qcurve" smooth="yes"/>
      <point x="362.5" y="-30.0"/>
      <point x="137.0" y="297.0"/>
    </contour>
  </outline>
</glyph>
<glyph name="seven" format="2">
  <advance width="1075"/>
  <unicode hex="0037"/>
  <outline>
    <contour>
      <point x="318.5" y="0.0" type="line"/>
      <point x="850.5" y="1397.5" type="line"/>
      <point x="120.0" y="1397.5" type="line"/>
      <point x="120.0" y="1456.0" type="line"/>
      <point x="910.5" y="1456.0" type="line"/>
      <point x="910.5" y="1383.0" type="line"/>
      <point x="388.0" y="0.0" type="line"/>
    </contour>
  </outline>
</glyph>
<glyph name="eight" format="2">
  <advance width="1138"/>
  <unicode hex="0038"/>
  <outline>
    <contour>
      <point x="158.0" y="382.0" type="qcurve" smooth="yes"/>
      <point x="158.0" y="515.5"/>
      <point x="307.0" y="707.0"/>
      <point x="405.5" y="746.5" type="qcurve"/>
      <point x="405.5" y="750.5" type="line"/>
      <point x="327.0" y="790.5"/>
      <point x="198.5" y="973.5"/>
      <point x="198.5" y="1097.0" type="qcurve" smooth="yes"/>
      <point x="198.5" y="1272.5"/>
      <point x="404.5" y="1486.0"/>
      <point x="568.5" y="1486.0" type="qcurve" smooth="yes"/>
      <point x="732.5" y="1486.0"/>
      <point x="938.5" y="1267.5"/>
      <point x="938.5" y="1097.0" type="qcurve" smooth="yes"/>
      <point x="938.5" y="973.5"/>
      <point x="814.0" y="785.0"/>
      <point x="727.5" y="750.5" type="qcurve"/>
      <point x="727.5" y="746.5" type="line"/>
      <point x="832.5" y="722.5"/>
      <point x="980.0" y="516.5"/>
      <point x="980.0" y="382.0" type="qcurve" smooth="yes"/>
      <point x="980.0" y="188.5"/>
      <point x="753.0" y="-30.0"/>
      <point x="568.5" y="-30.0" type="qcurve" smooth="yes"/>
      <point x="384.0" y="-30.0"/>
      <point x="158.0" y="188.5"/>
    </contour>
    <contour>
      <point x="223.5" y="384.5" type="qcurve" smooth="yes"/>
      <point x="223.5" y="229.0"/>
      <point x="413.0" y="32.5"/>
      <point x="568.5" y="32.5" type="qcurve" smooth="yes"/>
      <point x="723.0" y="32.5"/>
      <point x="913.5" y="229.0"/>
      <point x="913.5" y="384.5" type="qcurve" smooth="yes"/>
      <point x="913.5" y="533.5"/>
      <point x="725.5" y="714.5"/>
      <point x="568.5" y="714.5" type="qcurve" smooth="yes"/>
      <point x="410.5" y="714.5"/>
      <point x="223.5" y="533.5"/>
    </contour>
    <contour>
      <point x="263.5" y="1094.5" type="qcurve" smooth="yes"/>
      <point x="263.5" y="957.0"/>
      <point x="427.5" y="775.5"/>
      <point x="568.5" y="775.5" type="qcurve" smooth="yes"/>
      <point x="708.5" y="775.5"/>
      <point x="874.5" y="957.0"/>
      <point x="874.5" y="1094.5" type="qcurve" smooth="yes"/>
      <point x="874.5" y="1240.0"/>
      <point x="707.5" y="1421.5"/>
      <point x="568.5" y="1421.5" type="qcurve" smooth="yes"/>
      <point x="428.5" y="1421.5"/>
      <point x="263.5" y="1240.0"/>
    </contour>
  </outline>
</glyph>
<glyph name="nine" format="2">
  <advance width="1075"/>
  <unicode hex="0039"/>
  <outline>
    <contour>
      <point x="117.0" y="986.0" type="qcurve" smooth="yes"/>
      <point x="117.0" y="1208.0"/>
      <point x="336.5" y="1486.0"/>
      <point x="511.5" y="1486.0" type="qcurve" smooth="yes"/>
      <point x="713.5" y="1486.0"/>
      <point x="938.0" y="1159.0"/>
      <point x="938.0" y="842.0" type="qcurve" smooth="yes"/>
      <point x="938.0" y="812.0" type="line" smooth="yes"/>
      <point x="938.0" y="434.5"/>
      <point x="557.0" y="-30.0"/>
      <point x="288.5" y="-30.0" type="qcurve" smooth="yes"/>
      <point x="270.5" y="-30.0" type="line"/>
      <point x="270.5" y="35.5" type="line"/>
      <point x="288.5" y="35.5" type="line" smooth="yes"/>
      <point x="517.5" y="35.5"/>
      <point x="873.5" y="444.5"/>
      <point x="873.5" y="802.0" type="qcurve" smooth="yes"/>
      <point x="873.5" y="852.0" type="line" smooth="yes"/>
      <point x="873.5" y="1159.0"/>
      <point x="673.5" y="1423.5"/>
      <point x="511.5" y="1423.5" type="qcurve" smooth="yes"/>
      <point x="352.0" y="1423.5"/>
      <point x="183.0" y="1186.0"/>
      <point x="183.0" y="986.0" type="qcurve" smooth="yes"/>
      <point x="183.0" y="799.0"/>
      <point x="361.0" y="584.5"/>
      <point x="511.5" y="585.5" type="qcurve" smooth="yes"/>
      <point x="663.0" y="586.5"/>
      <point x="875.0" y="827.5"/>
      <point x="875.0" y="986.0" type="qcurve"/>
      <point x="915.0" y="986.0" type="line"/>
      <point x="915.0" y="780.5"/>
      <point x="671.0" y="522.5"/>
      <point x="502.0" y="522.5" type="qcurve" smooth="yes"/>
      <point x="318.5" y="522.5"/>
      <point x="117.0" y="778.5"/>
    </contour>
  </outline>
</glyph>
<glyph name="colon" format="2">
  <advance width="499"/>
  <unicode hex="003A"/>
  <outline>
    <contour>
      <point x="192.0" y="61.22000000000001" type="qcurve" smooth="yes"/>
      <point x="192.0" y="95.58000000000001"/>
      <point x="222.22" y="144.44000000000003"/>
      <point x="249.67999999999998" y="144.44000000000003" type="qcurve" smooth="yes"/>
      <point x="277.64" y="144.44000000000003"/>
      <point x="307.36" y="95.58000000000001"/>
      <point x="307.36" y="61.22000000000001" type="qcurve" smooth="yes"/>
      <point x="307.36" y="26.860000000000007"/>
      <point x="277.64" y="-22.0"/>
      <point x="249.67999999999998" y="-22.0" type="qcurve" smooth="yes"/>
      <point x="222.22" y="-22.0"/>
      <point x="192.0" y="26.860000000000007"/>
    </contour>
    <contour>
      <point x="192.0" y="1023.5799999999999" type="qcurve" smooth="yes"/>
      <point x="192.0" y="1057.94"/>
      <point x="222.22" y="1106.8"/>
      <point x="249.67999999999998" y="1106.8" type="qcurve" smooth="yes"/>
      <point x="277.64" y="1106.8"/>
      <point x="307.36" y="1057.94"/>
      <point x="307.36" y="1023.5799999999999" type="qcurve" smooth="yes"/>
      <point x="307.36" y="989.2199999999999"/>
      <point x="277.64" y="940.36"/>
      <point x="249.67999999999998" y="940.36" type="qcurve" smooth="yes"/>
      <point x="222.22" y="940.36"/>
      <point x="192.0" y="989.2199999999999"/>
    </contour>
  </outline>
</glyph>
<glyph name="semicolon" format="2">
  <advance width="499"/>
  <unicode hex="003B"/>
  <outline>
    <contour>
      <point x="182.18" y="-134.85999999999999" type="line"/>
      <point x="204.64000000000001" y="-96.35999999999999"/>
      <point x="227.74" y="-9.659999999999997"/>
      <point x="227.74" y="46.0" type="qcurve" smooth="yes"/>
      <point x="227.74" y="144.36" type="line"/>
      <point x="305.46000000000004" y="144.36" type="line"/>
      <point x="305.46000000000004" y="47.0" type="line" smooth="yes"/>
      <point x="305.46000000000004" y="-24.379999999999995"/>
      <point x="270.52000000000004" y="-126.94"/>
      <point x="236.4" y="-169.6" type="qcurve"/>
    </contour>
    <contour>
      <point x="190.5" y="1023.5799999999999" type="qcurve" smooth="yes"/>
      <point x="190.5" y="1057.94"/>
      <point x="220.72" y="1106.8"/>
      <point x="248.17999999999998" y="1106.8" type="qcurve" smooth="yes"/>
      <point x="276.14" y="1106.8"/>
      <point x="305.86" y="1057.94"/>
      <point x="305.86" y="1023.5799999999999" type="qcurve" smooth="yes"/>
      <point x="305.86" y="989.2199999999999"/>
      <point x="276.14" y="940.36"/>
      <point x="248.17999999999998" y="940.36" type="qcurve" smooth="yes"/>
      <point x="220.72" y="940.36"/>
      <point x="190.5" y="989.2199999999999"/>
    </contour>
  </outline>
</glyph>
<glyph name="less" format="2">
  <advance width="1426"/>
  <unicode hex="003C"/>
  <outline>
    <contour>
      <point x="1100" y="259" type="line"/>
      <point x="313" y="642" type="line"/>
      <point x="313" y="716" type="line"/>
      <point x="1100" y="1094" type="line"/>
      <point x="1100" y="1035" type="line"/>
      <point x="361" y="680" type="line"/>
      <point x="1100" y="319" type="line"/>
    </contour>
  </outline>
</glyph>
<glyph name="equal" format="2">
  <advance width="1424"/>
  <unicode hex="003D"/>
  <outline>
    <contour>
      <point x="390.79999999999995" y="469.09999999999997" type="line"/>
      <point x="390.79999999999995" y="517.6" type="line"/>
      <point x="1032.3200000000002" y="517.6" type="line"/>
      <point x="1032.3200000000002" y="469.09999999999997" type="line"/>
    </contour>
    <contour>
      <point x="390.79999999999995" y="885.4" type="line"/>
      <point x="390.79999999999995" y="933.9" type="line"/>
      <point x="1032.3200000000002" y="933.9" type="line"/>
      <point x="1032.3200000000002" y="885.4" type="line"/>
    </contour>
  </outline>
</glyph>
<glyph name="greater" format="2">
  <advance width="1426"/>
  <unicode hex="003E"/>
  <outline>
    <contour>
      <point x="325" y="259" type="line"/>
      <point x="325" y="319" type="line"/>
      <point x="1064" y="680" type="line"/>
      <point x="325" y="1035" type="line"/>
      <point x="325" y="1094" type="line"/>
      <point x="1112" y="716" type="line"/>
      <point x="1112" y="642" type="line"/>
    </contour>
  </outline>
</glyph>
<glyph name="question" format="2">
  <advance width="788"/>
  <unicode hex="003F"/>
  <outline>
    <contour>
      <point x="286.7" y="61.22000000000001" type="qcurve" smooth="yes"/>
      <point x="286.7" y="95.58000000000001"/>
      <point x="316.92" y="144.44000000000003"/>
      <point x="343.38000000000005" y="144.44000000000003" type="qcurve" smooth="yes"/>
      <point x="371.34000000000003" y="144.44000000000003"/>
      <point x="401.56000000000006" y="95.58000000000001"/>
      <point x="401.56000000000006" y="61.22000000000001" type="qcurve" smooth="yes"/>
      <point x="401.56000000000006" y="26.860000000000007"/>
      <point x="372.34000000000003" y="-22.0"/>
      <point x="344.38000000000005" y="-22.0" type="qcurve" smooth="yes"/>
      <point x="316.92" y="-22.0"/>
      <point x="286.7" y="26.860000000000007"/>
    </contour>
    <contour>
      <point x="82.78000000000003" y="1086.0" type="line"/>
      <point x="82.78000000000003" y="1108.4" type="line" smooth="yes"/>
      <point x="82.78000000000003" y="1285.92"/>
      <point x="238.60000000000005" y="1476.0"/>
      <point x="379.22" y="1476.0" type="qcurve" smooth="yes"/>
      <point x="518.76" y="1476.0"/>
      <point x="670.6800000000001" y="1281.02"/>
      <point x="670.6800000000001" y="1129.0" type="qcurve" smooth="yes"/>
      <point x="670.6800000000001" y="985.8199999999999"/>
      <point x="581.82" y="837.3199999999999"/>
      <point x="501.96000000000004" y="745.3199999999999" type="qcurve" smooth="yes"/>
      <point x="428.46000000000004" y="658.74"/>
      <point x="370.15999999999997" y="500.68"/>
      <point x="370.15999999999997" y="424.8" type="qcurve" smooth="yes"/>
      <point x="370.15999999999997" y="414.8" type="line"/>
      <point x="310.68" y="414.8" type="line"/>
      <point x="310.68" y="425.3" type="line" smooth="yes"/>
      <point x="310.68" y="532.64"/>
      <point x="389.38" y="706.64"/>
      <point x="463.08" y="791.52" type="qcurve" smooth="yes"/>
      <point x="531.82" y="870.5600000000001"/>
      <point x="604.6999999999999" y="1011.1199999999999"/>
      <point x="604.6999999999999" y="1129.0" type="qcurve" smooth="yes"/>
      <point x="604.6999999999999" y="1253.8200000000002"/>
      <point x="485.53999999999996" y="1415.4"/>
      <point x="379.22" y="1415.4" type="qcurve" smooth="yes"/>
      <point x="273.22" y="1415.4"/>
      <point x="149.07999999999998" y="1260.06"/>
      <point x="149.07999999999998" y="1108.4" type="qcurve" smooth="yes"/>
      <point x="149.07999999999998" y="1086.0" type="line"/>
    </contour>
  </outline>
</glyph>
<glyph name="at" format="2">
  <advance width="1859"/>
  <unicode hex="0040"/>
  <outline>
    <contour>
      <point x="614.2800000000001" y="400.0" type="qcurve" smooth="yes"/>
      <point x="614.2800000000001" y="680.0"/>
      <point x="846.76" y="1052.0"/>
      <point x="1015.5800000000002" y="1052.0" type="qcurve" smooth="yes"/>
      <point x="1077.6200000000001" y="1052.0"/>
      <point x="1190.8799999999999" y="977.24"/>
      <point x="1217.44" y="946.0" type="qcurve"/>
      <point x="1247.0" y="946.0" type="line"/>
      <point x="1128.3999999999999" y="350.0" type="line" smooth="yes"/>
      <point x="1094.64" y="184.32"/>
      <point x="1233.18" y="56.7"/>
      <point x="1342.68" y="56.7" type="qcurve" smooth="yes"/>
      <point x="1495.579746835443" y="56.7"/>
      <point x="1687.46" y="384.64"/>
      <point x="1687.46" y="650.0" type="qcurve" smooth="yes"/>
      <point x="1687.46" y="958.5999999999999"/>
      <point x="1313.1779888268156" y="1427.0"/>
      <point x="973.98" y="1427.0" type="qcurve" smooth="yes"/>
      <point x="635.128" y="1427.0"/>
      <point x="177.64" y="860.2199999999999"/>
      <point x="177.64" y="460.0" type="qcurve" smooth="yes"/>
      <point x="177.64" y="53.620000000000005"/>
      <point x="576.2742857142857" y="-387.0"/>
      <point x="875.9800000000001" y="-387.0" type="qcurve" smooth="yes"/>
      <point x="1013.6800000000001" y="-387.0"/>
      <point x="1205.54" y="-333.0"/>
      <point x="1270.9799999999998" y="-297.0" type="qcurve"/>
      <point x="1270.9799999999998" y="-356.0" type="line"/>
      <point x="1200.72" y="-400.0"/>
      <point x="1013.6800000000001" y="-446.0"/>
      <point x="875.9800000000001" y="-446.0" type="qcurve" smooth="yes"/>
      <point x="556.1" y="-446.0"/>
      <point x="114.0" y="40.0"/>
      <point x="114.0" y="460.0" type="qcurve" smooth="yes"/>
      <point x="114.0" y="880.0"/>
      <point x="615.9" y="1486.0"/>
      <point x="973.98" y="1486.0" type="qcurve" smooth="yes"/>
      <point x="1329.6399999999999" y="1486.0"/>
      <point x="1748.56" y="1000.0"/>
      <point x="1748.56" y="650.0" type="qcurve" smooth="yes"/>
      <point x="1748.56" y="360.0"/>
      <point x="1506.8" y="0.0"/>
      <point x="1333.28" y="0.0" type="qcurve" smooth="yes"/>
      <point x="1230.553946731235" y="0.0"/>
      <point x="1092.180283172521" y="101.6115469239664"/>
      <point x="1063.22" y="189.8" type="qcurve"/>
      <point x="1035.08499607202" y="100.99934977034849"/>
      <point x="912.9382195845697" y="0.0"/>
      <point x="837.1800000000001" y="0.0" type="qcurve" smooth="yes"/>
      <point x="735.0400000000001" y="0.0"/>
      <point x="614.2800000000001" y="220.0"/>
    </contour>
    <contour>
      <point x="674.4399999999999" y="400.0" type="qcurve" smooth="yes"/>
      <point x="674.4399999999999" y="231.36"/>
      <point x="763.0636893203883" y="56.60000000000001"/>
      <point x="845.4199999999998" y="56.60000000000001" type="qcurve" smooth="yes"/>
      <point x="921.9523954372626" y="56.60000000000001"/>
      <point x="1035.6745061406446" y="210.25250358007494"/>
      <point x="1075.22" y="396.0" type="qcurve" smooth="yes"/>
      <point x="1187.42" y="931.0" type="line"/>
      <point x="1159.1508348606558" y="958.6679816522864"/>
      <point x="1065.1399999999999" y="993.1"/>
      <point x="1021.1800000000001" y="993.1" type="qcurve" smooth="yes"/>
      <point x="871.1214778325123" y="993.1"/>
      <point x="674.4399999999999" y="655.4399999999999"/>
    </contour>
  </outline>
</glyph>
<glyph name="A" format="2">
  <advance width="1029"/>
  <unicode hex="0041"/>
  <anchor x="614.0" y="1432.0" name="top"/>
  <outline>
    <contour>
      <point x="0.0" y="0.0" type="line"/>
      <point x="471" y="1465" type="line"/>
      <point x="564" y="1465" type="line"/>
      <point x="1036" y="0.0" type="line"/>
      <point x="966" y="0.0" type="line"/>
      <point x="564" y="1270" type="line" smooth="yes"/>
      <point x="549" y="1317"/>
      <point x="530" y="1399"/>
      <point x="519" y="1440" type="qcurve"/>
      <point x="509" y="1440" type="line"/>
      <point x="498" y="1399"/>
      <point x="477" y="1318"/>
      <point x="462" y="1270" type="qcurve" smooth="yes"/>
      <point x="62" y="0.0" type="line"/>
    </contour>
    <contour>
      <point x="164" y="427" type="line"/>
      <point x="180" y="491" type="line"/>
      <point x="851" y="493" type="line"/>
      <point x="866" y="429.0" type="line"/>
    </contour>
  </outline>
</glyph>
<glyph name="B" format="2">
  <advance width="1030"/>
  <unicode hex="0042"/>
  <outline>
    <contour>
      <point x="180.0" y="0.0" type="line"/>
      <point x="180.0" y="1456.0" type="line"/>
      <point x="523.6999999999999" y="1456.0" type="line" smooth="yes"/>
      <point x="695.9" y="1456.0"/>
      <point x="886.8599999999999" y="1279.8"/>
      <point x="886.8599999999999" y="1094.32" type="qcurve" smooth="yes"/>
      <point x="886.8599999999999" y="963.52"/>
      <point x="781.8199999999999" y="790.42"/>
      <point x="700.1" y="766.14" type="qcurve"/>
      <point x="700.1" y="762.14" type="line"/>
      <point x="804.9199999999998" y="736.86"/>
      <point x="930.06" y="544.62"/>
      <point x="930.06" y="390.96" type="qcurve" smooth="yes"/>
      <point x="930.06" y="206.48"/>
      <point x="730.12" y="0.0"/>
      <point x="557.76" y="0.0" type="qcurve" smooth="yes"/>
    </contour>
    <contour>
      <point x="244.30000000000007" y="60.10000000000001" type="line"/>
      <point x="557.76" y="60.10000000000001" type="line" smooth="yes"/>
      <point x="716.6" y="60.10000000000001"/>
      <point x="865.16" y="241.96000000000004"/>
      <point x="865.16" y="394.84" type="qcurve" smooth="yes"/>
      <point x="865.16" y="547.22"/>
      <point x="716.5345856353591" y="728.0"/>
      <point x="557.76" y="728.0" type="qcurve" smooth="yes"/>
      <point x="244.30000000000007" y="728.0" type="line"/>
    </contour>
    <contour>
      <point x="244.30000000000007" y="788.0" type="line"/>
      <point x="523.1999999999999" y="788.0" type="line" smooth="yes"/>
      <point x="681.86" y="788.0"/>
      <point x="821.4599999999999" y="947.82"/>
      <point x="821.4599999999999" y="1090.96" type="qcurve" smooth="yes"/>
      <point x="821.4599999999999" y="1237.32"/>
      <point x="681.869971671388" y="1395.9"/>
      <point x="523.1999999999999" y="1395.9" type="qcurve" smooth="yes"/>
      <point x="244.30000000000007" y="1395.9" type="line"/>
    </contour>
  </outline>
</glyph>
<glyph name="C" format="2">
  <advance width="1056"/>
  <unicode hex="0043"/>
  <anchor x="686.0" y="0" name="bottom"/>
  <outline>
    <contour>
      <point x="125.0" y="698.0999999999999" type="qcurve" smooth="yes"/>
      <point x="125.0" y="757.9000000000001" type="line" smooth="yes"/>
      <point x="125.0" y="1101.38"/>
      <point x="390.16" y="1486.0"/>
      <point x="597.24" y="1486.0" type="qcurve" smooth="yes"/>
      <point x="798.9875812274367" y="1486.0"/>
      <point x="1008.6199999999999" y="1196.8400000000001"/>
      <point x="1018.7799999999997" y="994.0" type="qcurve" smooth="yes"/>
      <point x="1018.7799999999997" y="984.0" type="line"/>
      <point x="952.72" y="984.0" type="line"/>
      <point x="952.72" y="994.0" type="line" smooth="yes"/>
      <point x="943.9507059062112" y="1153.6994114068295"/>
      <point x="777.2691390728477" y="1423.1"/>
      <point x="597.24" y="1423.1" type="qcurve" smooth="yes"/>
      <point x="414.46280701754387" y="1423.1"/>
      <point x="189.92000000000002" y="1069.0972262773723"/>
      <point x="189.92000000000002" y="757.9000000000001" type="qcurve" smooth="yes"/>
      <point x="189.92000000000002" y="698.0999999999999" type="line" smooth="yes"/>
      <point x="189.92000000000002" y="386.898102189781"/>
      <point x="414.46280701754387" y="32.900000000000006"/>
      <point x="597.24" y="32.900000000000006" type="qcurve" smooth="yes"/>
      <point x="777.2691390728477" y="32.900000000000006"/>
      <point x="943.4507059062112" y="302.30058859317046"/>
      <point x="953.22" y="462.0" type="qcurve" smooth="yes"/>
      <point x="953.22" y="472.0" type="line"/>
      <point x="1019.2799999999997" y="472.0" type="line"/>
      <point x="1019.2799999999997" y="462.0" type="line" smooth="yes"/>
      <point x="1009.1199999999999" y="259.15999999999997"/>
      <point x="798.9875812274367" y="-30.0"/>
      <point x="597.24" y="-30.0" type="qcurve" smooth="yes"/>
      <point x="390.16" y="-30.0"/>
      <point x="125.0" y="354.56966292134837"/>
    </contour>
  </outline>
</glyph>
<glyph name="D" format="2">
  <advance width="1131"/>
  <unicode hex="0044"/>
  <outline>
    <contour>
      <point x="180.0" y="0.0" type="line"/>
      <point x="180.0" y="1456.0" type="line"/>
      <point x="472.5799999999999" y="1456.0" type="line" smooth="yes"/>
      <point x="714.6743338437979" y="1456.0"/>
      <point x="1005.6600000000001" y="1081.1000000000001"/>
      <point x="1005.6600000000001" y="757.9000000000001" type="qcurve" smooth="yes"/>
      <point x="1005.6600000000001" y="698.0999999999999" type="line" smooth="yes"/>
      <point x="1005.6600000000001" y="375.03675213675217"/>
      <point x="714.6743338437979" y="0.0"/>
      <point x="472.5799999999999" y="0.0" type="qcurve" smooth="yes"/>
    </contour>
    <contour>
      <point x="244.01999999999998" y="62.499999999999986" type="line"/>
      <point x="472.5799999999999" y="62.499999999999986" type="line" smooth="yes"/>
      <point x="691.5777700348432" y="62.499999999999986"/>
      <point x="939.74" y="401.08000000000004"/>
      <point x="939.74" y="698.0999999999999" type="qcurve" smooth="yes"/>
      <point x="939.74" y="757.9000000000001" type="line" smooth="yes"/>
      <point x="939.74" y="1055.02"/>
      <point x="691.5777700348432" y="1393.5"/>
      <point x="472.5799999999999" y="1393.5" type="qcurve" smooth="yes"/>
      <point x="244.01999999999998" y="1393.5" type="line"/>
    </contour>
  </outline>
</glyph>
<glyph name="E" format="2">
  <advance width="943"/>
  <unicode hex="0045"/>
  <anchor x="626.0" y="1122.0" name="top"/>
  <outline>
    <contour>
      <point x="180.0" y="0.0" type="line"/>
      <point x="180.0" y="1456.0" type="line"/>
      <point x="864.4" y="1456.0" type="line"/>
      <point x="864.4" y="1393.5" type="line"/>
      <point x="244.01999999999998" y="1393.5" type="line"/>
      <point x="244.01999999999998" y="782.5" type="line"/>
      <point x="759.5399999999998" y="782.5" type="line"/>
      <point x="759.5399999999998" y="719.5" type="line"/>
      <point x="244.01999999999998" y="719.5" type="line"/>
      <point x="244.01999999999998" y="62.499999999999986" type="line"/>
      <point x="875.5399999999998" y="62.499999999999986" type="line"/>
      <point x="875.5399999999998" y="0.0" type="line"/>
    </contour>
  </outline>
</glyph>
<glyph name="F" format="2">
  <advance width="910"/>
  <unicode hex="0046"/>
  <outline>
    <contour>
      <point x="180.0" y="0.0" type="line"/>
      <point x="180.0" y="1456.0" type="line"/>
      <point x="852.9399999999999" y="1456.0" type="line"/>
      <point x="852.9399999999999" y="1393.5" type="line"/>
      <point x="244.01999999999998" y="1393.5" type="line"/>
      <point x="244.01999999999998" y="750.78" type="line"/>
      <point x="764.3399999999999" y="750.78" type="line"/>
      <point x="764.3399999999999" y="689.78" type="line"/>
      <point x="244.01999999999998" y="689.78" type="line"/>
      <point x="244.01999999999998" y="0.0" type="line"/>
    </contour>
  </outline>
</glyph>
<glyph name="G" format="2">
  <advance width="1073"/>
  <unicode hex="0047"/>
  <outline>
    <contour>
      <point x="125.0" y="698.5999999999999" type="qcurve" smooth="yes"/>
      <point x="125.0" y="757.4000000000001" type="line" smooth="yes"/>
      <point x="125.0" y="1101.38"/>
      <point x="388.66" y="1486.0"/>
      <point x="588.24" y="1486.0" type="qcurve" smooth="yes"/>
      <point x="793.9536086175942" y="1486.0"/>
      <point x="1006.4200000000001" y="1218.46"/>
      <point x="1016.0999999999999" y="1036.9" type="qcurve" smooth="yes"/>
      <point x="1017.0999999999999" y="1026.4" type="line"/>
      <point x="951.04" y="1026.4" type="line"/>
      <point x="949.54" y="1036.9" type="line" smooth="yes"/>
      <point x="935.346261207223" y="1174.854818405762"/>
      <point x="772.202363238512" y="1423.7"/>
      <point x="589.24" y="1423.7" type="qcurve" smooth="yes"/>
      <point x="412.96280701754387" y="1423.7"/>
      <point x="189.92000000000002" y="1068.8775182481754"/>
      <point x="189.92000000000002" y="757.4000000000001" type="qcurve" smooth="yes"/>
      <point x="189.92000000000002" y="698.5999999999999" type="line" smooth="yes"/>
      <point x="189.92000000000002" y="387.1178102189781"/>
      <point x="409.35571687840286" y="32.30000000000001"/>
      <point x="622.8" y="32.30000000000001" type="qcurve" smooth="yes"/>
      <point x="729.8454800936768" y="32.30000000000001"/>
      <point x="881.8372838092399" y="90.26293544957778"/>
      <point x="954.1200000000001" y="152.72000000000003" type="qcurve"/>
      <point x="954.1200000000001" y="614.0" type="line"/>
      <point x="597.6999999999999" y="614.0" type="line"/>
      <point x="597.6999999999999" y="677.5" type="line"/>
      <point x="1014.5999999999999" y="677.5" type="line"/>
      <point x="1014.5999999999999" y="127.10000000000002" type="line"/>
      <point x="949.0362135292378" y="61.96292830120302"/>
      <point x="764.1949242424241" y="-30.0"/>
      <point x="622.8" y="-30.0" type="qcurve" smooth="yes"/>
      <point x="387.47999999999996" y="-30.0"/>
      <point x="125.0" y="354.56966292134837"/>
    </contour>
  </outline>
</glyph>
<glyph name="H" format="2">
  <advance width="1213"/>
  <unicode hex="0048"/>
  <outline>
    <contour>
      <point x="180.0" y="0.0" type="line"/>
      <point x="180.0" y="1456.0" type="line"/>
      <point x="244.01999999999998" y="1456.0" type="line"/>
      <point x="244.01999999999998" y="782.38" type="line"/>
      <point x="968.6200000000001" y="782.38" type="line"/>
      <point x="968.6200000000001" y="1456.0" type="line"/>
      <point x="1032.6399999999999" y="1456.0" type="line"/>
      <point x="1032.6399999999999" y="0.0" type="line"/>
      <point x="968.6200000000001" y="0.0" type="line"/>
      <point x="968.6200000000001" y="719.38" type="line"/>
      <point x="244.01999999999998" y="719.38" type="line"/>
      <point x="244.01999999999998" y="0.0" type="line"/>
    </contour>
  </outline>
</glyph>
<glyph name="J" format="2">
  <advance width="859"/>
  <unicode hex="004A"/>
  <outline>
    <contour>
      <point x="25.0" y="442.7" type="qcurve" smooth="yes"/>
      <point x="25.0" y="452.7" type="line"/>
      <point x="90.26000000000002" y="452.7" type="line"/>
      <point x="90.26000000000002" y="442.7" type="line" smooth="yes"/>
      <point x="90.26000000000002" y="241.44"/>
      <point x="233.72728358208957" y="32.30000000000001"/>
      <point x="366.05999999999995" y="32.30000000000001" type="qcurve" smooth="yes"/>
      <point x="497.3927164179104" y="32.30000000000001"/>
      <point x="632.36" y="258.60240549828177"/>
      <point x="632.36" y="467.7" type="qcurve" smooth="yes"/>
      <point x="632.36" y="1456.0" type="line"/>
      <point x="695.38" y="1456.0" type="line"/>
      <point x="695.38" y="467.7" type="line" smooth="yes"/>
      <point x="694.38" y="237.01538461538462"/>
      <point x="523.3399999999999" y="-30.0"/>
      <point x="366.05999999999995" y="-30.0" type="qcurve" smooth="yes"/>
      <point x="207.77999999999997" y="-30.0"/>
      <point x="25.0" y="223.22"/>
    </contour>
  </outline>
</glyph>
<glyph name="K" format="2">
  <advance width="1041"/>
  <unicode hex="004B"/>
  <outline>
    <contour>
      <point x="180.0" y="0.0" type="line"/>
      <point x="180.0" y="1456.0" type="line"/>
      <point x="245" y="1456.0" type="line"/>
      <point x="245" y="627" type="line"/>
      <point x="964" y="1456.0" type="line"/>
      <point x="1044" y="1456.0" type="line"/>
      <point x="244" y="541" type="line"/>
      <point x="244" y="0.0" type="line"/>
    </contour>
    <contour>
      <point x="973" y="0.0" type="line"/>
      <point x="415" y="779" type="line"/>
      <point x="460.0" y="829" type="line"/>
      <point x="1047" y="0.0" type="line"/>
    </contour>
  </outline>
</glyph>
<glyph name="L" format="2">
  <advance width="852"/>
  <unicode hex="004C"/>
  <outline>
    <contour>
      <point x="180.0" y="0.0" type="line"/>
      <point x="180.0" y="1456.0" type="line"/>
      <point x="244.01999999999998" y="1456.0" type="line"/>
      <point x="244.01999999999998" y="62.499999999999986" type="line"/>
      <point x="844.24" y="62.499999999999986" type="line"/>
      <point x="844.24" y="0.0" type="line"/>
    </contour>
  </outline>
</glyph>
<glyph name="M" format="2">
  <advance width="1517"/>
  <unicode hex="004D"/>
  <outline>
    <contour>
      <point x="180.0" y="0.0" type="line"/>
      <point x="180.0" y="1456.0" type="line"/>
      <point x="253.0" y="1456.0" type="line"/>
      <point x="704" y="231" type="line" smooth="yes"/>
      <point x="717" y="196"/>
      <point x="750.0" y="96"/>
      <point x="754" y="58" type="qcurve"/>
      <point x="761.0" y="58" type="line"/>
      <point x="766.0" y="98"/>
      <point x="798" y="196"/>
      <point x="811.0" y="231" type="qcurve" smooth="yes"/>
      <point x="1262.0" y="1456.0" type="line"/>
      <point x="1334.0" y="1456.0" type="line"/>
      <point x="1334.0" y="0.0" type="line"/>
      <point x="1272.0" y="0.0" type="line"/>
      <point x="1272.0" y="1203.0" type="line" smooth="yes"/>
      <point x="1272.0" y="1239.0"/>
      <point x="1274.0" y="1326.0"/>
      <point x="1277.0" y="1361.0" type="qcurve"/>
      <point x="1271" y="1361.0" type="line"/>
      <point x="1260.0" y="1326.0"/>
      <point x="1238.0" y="1240"/>
      <point x="1226.0" y="1203.0" type="qcurve" smooth="yes"/>
      <point x="794.0" y="0.0" type="line"/>
      <point x="726.0" y="0.0" type="line"/>
      <point x="280" y="1203.0" type="line" smooth="yes"/>
      <point x="267" y="1239.0"/>
      <point x="245" y="1326.0"/>
      <point x="240" y="1361.0" type="qcurve"/>
      <point x="230" y="1361.0" type="line"/>
      <point x="234" y="1326.0"/>
      <point x="238.0" y="1239.0"/>
      <point x="238.0" y="1203.0" type="qcurve" smooth="yes"/>
      <point x="238.0" y="0.0" type="line"/>
    </contour>
  </outline>
</glyph>
<glyph name="N" format="2">
  <advance width="1200"/>
  <unicode hex="004E"/>
  <anchor x="710.0" y="1432.0" name="top"/>
  <outline>
    <contour>
      <point x="170.0" y="0.0" type="line"/>
      <point x="170.0" y="1456.0" type="line"/>
      <point x="253" y="1456.0" type="line"/>
      <point x="944.0" y="151.0" type="line" smooth="yes"/>
      <point x="966" y="110"/>
      <point x="968.0" y="102"/>
      <point x="978.0" y="68.0" type="qcurve"/>
      <point x="985.0" y="68.0" type="line"/>
      <point x="982.0" y="103.0"/>
      <point x="976.0" y="180.0"/>
      <point x="976" y="215.0" type="qcurve" smooth="yes"/>
      <point x="976" y="1458.0" type="line"/>
      <point x="1035" y="1456.0" type="line"/>
      <point x="1035" y="0.0" type="line"/>
      <point x="958.0" y="0.0" type="line"/>
      <point x="273.0" y="1288.0" type="line" smooth="yes"/>
      <point x="257" y="1318"/>
      <point x="237" y="1367"/>
      <point x="229" y="1399.0" type="qcurve"/>
      <point x="222" y="1399.0" type="line"/>
      <point x="225" y="1363.0"/>
      <point x="228.0" y="1300.0"/>
      <point x="228" y="1266.0" type="qcurve" smooth="yes"/>
      <point x="228" y="0.0" type="line"/>
    </contour>
  </outline>
</glyph>
<glyph name="O" format="2">
  <advance width="1194"/>
  <unicode hex="004F"/>
  <anchor x="689.0" y="1432.0" name="top"/>
  <outline>
    <contour>
      <point x="125.0" y="698.0999999999999" type="qcurve" smooth="yes"/>
      <point x="125.0" y="757.9000000000001" type="line" smooth="yes"/>
      <point x="125.0" y="1101.38"/>
      <point x="382.0" y="1486.0"/>
      <point x="599.6999999999999" y="1486.0" type="qcurve" smooth="yes"/>
      <point x="817.0702439024391" y="1486.0"/>
      <point x="1067.3999999999999" y="1101.38"/>
      <point x="1067.3999999999999" y="757.9000000000001" type="qcurve" smooth="yes"/>
      <point x="1067.3999999999999" y="698.0999999999999" type="line" smooth="yes"/>
      <point x="1067.3999999999999" y="354.56966292134837"/>
      <point x="817.0702439024391" y="-30.0"/>
      <point x="599.6999999999999" y="-30.0" type="qcurve" smooth="yes"/>
      <point x="382.0" y="-30.0"/>
      <point x="125.0" y="354.56966292134837"/>
    </contour>
    <contour>
      <point x="189.92000000000002" y="698.0999999999999" type="line" smooth="yes"/>
      <point x="189.92000000000002" y="381.31810218978103"/>
      <point x="406.725247148289" y="32.900000000000006"/>
      <point x="599.6999999999999" y="32.900000000000006" type="qcurve" smooth="yes"/>
      <point x="792.3249429657795" y="32.900000000000006"/>
      <point x="1001.98" y="381.31810218978103"/>
      <point x="1001.98" y="698.0999999999999" type="qcurve" smooth="yes"/>
      <point x="1001.98" y="757.9000000000001" type="line" smooth="yes"/>
      <point x="1001.98" y="1074.6772262773723"/>
      <point x="792.3249429657795" y="1423.1"/>
      <point x="599.6999999999999" y="1423.1" type="qcurve" smooth="yes"/>
      <point x="407.225247148289" y="1423.1"/>
      <point x="189.92000000000002" y="1074.6772262773723"/>
      <point x="189.92000000000002" y="757.9000000000001" type="qcurve" smooth="yes"/>
    </contour>
  </outline>
</glyph>
<glyph name="P" format="2">
  <advance width="984"/>
  <unicode hex="0050"/>
  <outline>
    <contour>
      <point x="180.0" y="0.0" type="line"/>
      <point x="180.0" y="1456.0" type="line"/>
      <point x="520.24" y="1456.0" type="line" smooth="yes"/>
      <point x="717.0744144144144" y="1456.0"/>
      <point x="902.6800000000001" y="1216.66"/>
      <point x="902.6800000000001" y="1031.9" type="qcurve" smooth="yes"/>
      <point x="902.6800000000001" y="847.14"/>
      <point x="717.0744144144144" y="607.52"/>
      <point x="520.24" y="607.52" type="qcurve" smooth="yes"/>
      <point x="244.01999999999998" y="607.52" type="line"/>
      <point x="244.01999999999998" y="0.0" type="line"/>
    </contour>
    <contour>
      <point x="244.01999999999998" y="671.02" type="line"/>
      <point x="520.24" y="671.02" type="line" smooth="yes"/>
      <point x="696.7043979057592" y="671.02"/>
      <point x="837.92" y="877.06"/>
      <point x="837.92" y="1031.9" type="qcurve" smooth="yes"/>
      <point x="837.92" y="1187.74"/>
      <point x="696.7043979057592" y="1393.5"/>
      <point x="520.24" y="1393.5" type="qcurve" smooth="yes"/>
      <point x="244.01999999999998" y="1393.5" type="line"/>
    </contour>
  </outline>
</glyph>
<glyph name="Q" format="2">
  <advance width="1194"/>
  <unicode hex="0051"/>
  <outline>
    <contour>
      <point x="125.0" y="698" type="qcurve" smooth="yes"/>
      <point x="125.0" y="758" type="line" smooth="yes"/>
      <point x="125.0" y="1101"/>
      <point x="382.0" y="1486.0"/>
      <point x="600" y="1486.0" type="qcurve" smooth="yes"/>
      <point x="817" y="1486.0"/>
      <point x="1067" y="1101"/>
      <point x="1067" y="758" type="qcurve" smooth="yes"/>
      <point x="1067" y="698" type="line" smooth="yes"/>
      <point x="1067" y="355"/>
      <point x="817" y="-30.0"/>
      <point x="600" y="-30.0" type="qcurve" smooth="yes"/>
      <point x="382.0" y="-30.0"/>
      <point x="125.0" y="355"/>
    </contour>
    <contour>
      <point x="190" y="698" type="line" smooth="yes"/>
      <point x="190" y="381"/>
      <point x="407" y="33"/>
      <point x="600" y="33" type="qcurve" smooth="yes"/>
      <point x="792" y="33"/>
      <point x="1002" y="381"/>
      <point x="1002" y="698" type="qcurve" smooth="yes"/>
      <point x="1002" y="758" type="line" smooth="yes"/>
      <point x="1002" y="1075"/>
      <point x="792" y="1423"/>
      <point x="600" y="1423" type="qcurve" smooth="yes"/>
      <point x="407" y="1423"/>
      <point x="190" y="1075"/>
      <point x="190" y="758" type="qcurve" smooth="yes"/>
    </contour>
    <contour>
      <point x="1054" y="-213" type="line"/>
      <point x="558" y="211" type="line"/>
      <point x="599" y="251" type="line"/>
      <point x="1094" y="-169" type="line"/>
    </contour>
  </outline>
</glyph>
<glyph name="R" format="2">
  <advance width="995"/>
  <unicode hex="0052"/>
  <outline>
    <contour>
      <point x="180.0" y="0.0" type="line"/>
      <point x="180.0" y="1456.0" type="line"/>
      <point x="513.5999999999999" y="1456.0" type="line" smooth="yes"/>
      <point x="706.7609836065574" y="1456.0"/>
      <point x="893.8999999999999" y="1229.1200000000001"/>
      <point x="893.8999999999999" y="1046.52" type="qcurve" smooth="yes"/>
      <point x="893.8999999999999" y="863.92"/>
      <point x="706.78" y="637.12"/>
      <point x="513.5999999999999" y="637.12" type="qcurve" smooth="yes"/>
      <point x="244.01999999999998" y="637.12" type="line"/>
      <point x="244.01999999999998" y="0.0" type="line"/>
    </contour>
    <contour>
      <point x="244.01999999999998" y="700.72" type="line"/>
      <point x="513.5999999999999" y="700.72" type="line" smooth="yes"/>
      <point x="689.3132972972974" y="700.72"/>
      <point x="829.14" y="898.84"/>
      <point x="829.14" y="1046.52" type="qcurve" smooth="yes"/>
      <point x="829.14" y="1200.2"/>
      <point x="668.8132972972974" y="1393.3999999999999"/>
      <point x="513.5999999999999" y="1393.3999999999999" type="qcurve" smooth="yes"/>
      <point x="244.01999999999998" y="1393.3999999999999" type="line"/>
    </contour>
    <contour>
      <point x="863.88" y="0.0" type="line"/>
      <point x="529.2199999999999" y="672.0" type="line"/>
      <point x="597.4200000000001" y="672.0" type="line"/>
      <point x="938.9000000000001" y="0.0" type="line"/>
    </contour>
  </outline>
</glyph>
<glyph name="S" format="2">
  <advance width="977"/>
  <unicode hex="0053"/>
  <outline>
    <contour>
      <point x="100" y="384" type="qcurve" smooth="yes"/>
      <point x="100" y="406" type="line"/>
      <point x="164" y="406" type="line"/>
      <point x="164" y="383" type="line" smooth="yes"/>
      <point x="164" y="218"/>
      <point x="335" y="32"/>
      <point x="498" y="32" type="qcurve" smooth="yes"/>
      <point x="661" y="32"/>
      <point x="824" y="220"/>
      <point x="824" y="354" type="qcurve" smooth="yes"/>
      <point x="824" y="475"/>
      <point x="708" y="630"/>
      <point x="506" y="704" type="qcurve" smooth="yes"/>
      <point x="309" y="776"/>
      <point x="125" y="966"/>
      <point x="122" y="1108" type="qcurve" smooth="yes"/>
      <point x="119" y="1274"/>
      <point x="314" y="1486.0"/>
      <point x="488" y="1486.0" type="qcurve" smooth="yes"/>
      <point x="664" y="1486.0"/>
      <point x="863" y="1249"/>
      <point x="863" y="1078" type="qcurve" smooth="yes"/>
      <point x="863" y="1056" type="line"/>
      <point x="800" y="1056" type="line"/>
      <point x="800" y="1078" type="line" smooth="yes"/>
      <point x="794" y="1223"/>
      <point x="647" y="1424"/>
      <point x="488" y="1424" type="qcurve" smooth="yes"/>
      <point x="331" y="1424"/>
      <point x="190" y="1249"/>
      <point x="190" y="1140" type="qcurve" smooth="yes"/>
      <point x="190" y="1014"/>
      <point x="328" y="846"/>
      <point x="499" y="784" type="qcurve" smooth="yes"/>
      <point x="733" y="699"/>
      <point x="892" y="514"/>
      <point x="892" y="357" type="qcurve" smooth="yes"/>
      <point x="892" y="188"/>
      <point x="683" y="-30.0"/>
      <point x="498" y="-30.0" type="qcurve" smooth="yes"/>
      <point x="313" y="-30.0"/>
      <point x="100" y="192"/>
    </contour>
  </outline>
</glyph>
<glyph name="T" format="2">
  <advance width="957"/>
  <unicode hex="0054"/>
  <outline>
    <contour>
      <point x="24.0" y="1389.5" type="line"/>
      <point x="24.0" y="1456.0" type="line"/>
      <point x="933.76" y="1456.0" type="line"/>
      <point x="933.76" y="1389.5" type="line"/>
      <point x="510.14" y="1389.5" type="line"/>
      <point x="510.14" y="0.0" type="line"/>
      <point x="447.11999999999995" y="0.0" type="line"/>
      <point x="447.11999999999995" y="1389.5" type="line"/>
    </contour>
  </outline>
</glyph>
<glyph name="U" format="2">
  <advance width="1124"/>
  <unicode hex="0055"/>
  <anchor x="653.0" y="1432.0" name="top"/>
  <outline>
    <contour>
      <point x="155.0" y="511.42" type="qcurve" smooth="yes"/>
      <point x="155.0" y="1456.0" type="line"/>
      <point x="218.01999999999998" y="1456.0" type="line"/>
      <point x="218.01999999999998" y="511.42" type="line" smooth="yes"/>
      <point x="218.01999999999998" y="268.88476190476194"/>
      <point x="408.64816229116946" y="32.900000000000006"/>
      <point x="562.26" y="32.900000000000006" type="qcurve" smooth="yes"/>
      <point x="713.5151789976132" y="32.900000000000006"/>
      <point x="904.0000000000001" y="269.88476190476194"/>
      <point x="904.0000000000001" y="511.42" type="qcurve" smooth="yes"/>
      <point x="904.0000000000001" y="1456.0" type="line"/>
      <point x="968.02" y="1456.0" type="line"/>
      <point x="968.02" y="511.42" type="line" smooth="yes"/>
      <point x="968.02" y="241.02049099836333"/>
      <point x="741.1800000000001" y="-30.0"/>
      <point x="562.26" y="-30.0" type="qcurve" smooth="yes"/>
      <point x="383.34" y="-30.0"/>
      <point x="155.0" y="241.02049099836333"/>
    </contour>
  </outline>
</glyph>
<glyph name="V" format="2">
  <advance width="983"/>
  <unicode hex="0056"/>
  <outline>
    <contour>
      <point x="10.0" y="1456.0" type="line"/>
      <point x="74" y="1456.0" type="line"/>
      <point x="444" y="195" type="line" smooth="yes"/>
      <point x="457" y="151"/>
      <point x="478" y="71"/>
      <point x="489" y="29" type="qcurve"/>
      <point x="500" y="29" type="line"/>
      <point x="510" y="71"/>
      <point x="533" y="152"/>
      <point x="545" y="195" type="qcurve" smooth="yes"/>
      <point x="911" y="1456.0" type="line"/>
      <point x="972" y="1456.0" type="line"/>
      <point x="543" y="-9" type="line"/>
      <point x="443" y="-9" type="line"/>
    </contour>
  </outline>
</glyph>
<glyph name="W" format="2">
  <advance width="1592"/>
  <unicode hex="0057"/>
  <outline>
    <contour>
      <point x="387" y="-9" type="line"/>
      <point x="50.0" y="1456.0" type="line"/>
      <point x="109" y="1456.0" type="line"/>
      <point x="397" y="203" type="line" smooth="yes"/>
      <point x="405" y="167"/>
      <point x="417" y="91"/>
      <point x="420" y="55" type="qcurve"/>
      <point x="432" y="55" type="line"/>
      <point x="435" y="91"/>
      <point x="445" y="167"/>
      <point x="454" y="203.0" type="qcurve" smooth="yes"/>
      <point x="759" y="1456.0" type="line"/>
      <point x="842" y="1456.0" type="line"/>
      <point x="1141" y="203.0" type="line" smooth="yes"/>
      <point x="1150" y="167"/>
      <point x="1164" y="91"/>
      <point x="1167" y="55" type="qcurve"/>
      <point x="1180" y="55" type="line"/>
      <point x="1183" y="92"/>
      <point x="1198" y="167"/>
      <point x="1206" y="203" type="qcurve" smooth="yes"/>
      <point x="1491" y="1456.0" type="line"/>
      <point x="1544" y="1456.0" type="line"/>
      <point x="1209" y="-9" type="line"/>
      <point x="1136" y="-9" type="line"/>
      <point x="830.0" y="1271" type="line" smooth="yes"/>
      <point x="821" y="1307"/>
      <point x="810" y="1358"/>
      <point x="804" y="1393" type="qcurve"/>
      <point x="793" y="1393" type="line"/>
      <point x="788" y="1358"/>
      <point x="777" y="1309"/>
      <point x="768" y="1273" type="qcurve" smooth="yes"/>
      <point x="457" y="-7.0" type="line"/>
    </contour>
  </outline>
</glyph>
<glyph name="X" format="2">
  <advance width="1057"/>
  <unicode hex="0058"/>
  <outline>
    <contour>
      <point x="40.0" y="0.0" type="line"/>
      <point x="506" y="763" type="line"/>
      <point x="518" y="763" type="line"/>
      <point x="928" y="1456.0" type="line"/>
      <point x="994" y="1456.0" type="line"/>
      <point x="553" y="713" type="line"/>
      <point x="542" y="713" type="line"/>
      <point x="106" y="0.0" type="line"/>
    </contour>
    <contour>
      <point x="65" y="1456.0" type="line"/>
      <point x="132" y="1456.0" type="line"/>
      <point x="542" y="763" type="line"/>
      <point x="544" y="763" type="line"/>
      <point x="1008" y="0.0" type="line"/>
      <point x="939" y="0.0" type="line"/>
      <point x="506" y="713" type="line"/>
      <point x="505" y="713" type="line"/>
    </contour>
  </outline>
</glyph>
<glyph name="Y" format="2">
  <advance width="986"/>
  <unicode hex="0059"/>
  <anchor x="614.0" y="1432.0" name="top"/>
  <outline>
    <contour>
      <point x="463" y="0.0" type="line"/>
      <point x="463" y="572" type="line"/>
      <point x="20.0" y="1456.0" type="line"/>
      <point x="86" y="1456.0" type="line"/>
      <point x="436" y="755" type="line" smooth="yes"/>
      <point x="451" y="725"/>
      <point x="481" y="665"/>
      <point x="493" y="635" type="qcurve"/>
      <point x="497" y="635" type="line"/>
      <point x="509" y="665"/>
      <point x="538" y="725"/>
      <point x="553" y="755" type="qcurve" smooth="yes"/>
      <point x="897" y="1456.0" type="line"/>
      <point x="964" y="1456.0" type="line"/>
      <point x="527" y="572" type="line"/>
      <point x="527" y="0.0" type="line"/>
    </contour>
  </outline>
</glyph>
<glyph name="Z" format="2">
  <advance width="972"/>
  <unicode hex="005A"/>
  <outline>
    <contour>
      <point x="26.5" y="0.0" type="line"/>
      <point x="26.5" y="42.10000000000001" type="line"/>
      <point x="827.04" y="1390.0" type="line"/>
      <point x="39.959999999999994" y="1390.0" type="line"/>
      <point x="39.959999999999994" y="1456.0" type="line"/>
      <point x="913.3999999999999" y="1456.0" type="line"/>
      <point x="913.3999999999999" y="1413.9" type="line"/>
      <point x="112.86000000000001" y="64.99999999999999" type="line"/>
      <point x="948.4599999999998" y="64.99999999999999" type="line"/>
      <point x="948.4599999999998" y="0.0" type="line"/>
    </contour>
  </outline>
</glyph>
<glyph name="bracketleft" format="2">
  <advance width="458"/>
  <unicode hex="005B"/>
  <outline>
    <contour>
      <point x="169.5" y="-310.0" type="line"/>
      <point x="169.5" y="1456.0" type="line"/>
      <point x="504.2800000000001" y="1456.0" type="line"/>
      <point x="504.2800000000001" y="1395.3" type="line"/>
      <point x="234.20000000000005" y="1395.3" type="line"/>
      <point x="234.20000000000005" y="-249.3" type="line"/>
      <point x="504.2800000000001" y="-249.3" type="line"/>
      <point x="504.2800000000001" y="-310.0" type="line"/>
    </contour>
  </outline>
</glyph>
<glyph name="backslash" format="2">
  <advance width="461"/>
  <unicode hex="005C"/>
  <outline>
    <contour>
      <point x="-88.5" y="1456.0" type="line"/>
      <point x="-26.879999999999995" y="1456.0" type="line"/>
      <point x="548.92" y="-125.0" type="line"/>
      <point x="487.98" y="-125.0" type="line"/>
    </contour>
  </outline>
</glyph>
<glyph name="bracketright" format="2">
  <advance width="458"/>
  <unicode hex="005D"/>
  <outline>
    <contour>
      <point x="288.7" y="-310.0" type="line"/>
      <point x="-46.079999999999984" y="-310.0" type="line"/>
      <point x="-46.079999999999984" y="-249.3" type="line"/>
      <point x="224.0" y="-249.3" type="line"/>
      <point x="224.0" y="1395.3" type="line"/>
      <point x="-46.079999999999984" y="1395.3" type="line"/>
      <point x="-46.079999999999984" y="1456.0" type="line"/>
      <point x="288.7" y="1456.0" type="line"/>
    </contour>
  </outline>
</glyph>
<glyph name="asciicircum" format="2">
  <advance width="1032"/>
  <unicode hex="005E"/>
  <outline>
    <contour>
      <point x="35.0" y="720.0" type="line"/>
      <point x="489.79999999999995" y="1456.0" type="line"/>
      <point x="543.1" y="1456.0" type="line"/>
      <point x="997.8999999999999" y="720.0" type="line"/>
      <point x="915.0999999999999" y="720.0" type="line"/>
      <point x="516.6999999999999" y="1369.38" type="line"/>
      <point x="118.30000000000001" y="720.0" type="line"/>
    </contour>
  </outline>
</glyph>
<glyph name="underscore" format="2">
  <advance width="619"/>
  <unicode hex="005F"/>
  <outline>
    <contour>
      <point x="0.0" y="-317.5" type="line"/>
      <point x="0.0" y="-267.5" type="line"/>
      <point x="619.0" y="-267.5" type="line"/>
      <point x="619.0" y="-317.5" type="line"/>
    </contour>
  </outline>
</glyph>
<glyph name="grave" format="2">
  <advance width="1010"/>
  <unicode hex="0060"/>
  <anchor x="512.0" y="1052.0" name="_top"/>
  <outline>
    <contour>
      <point x="535.0" y="1184.5" type="line"/>
      <point x="289.5" y="1472.0" type="line"/>
      <point x="435.5" y="1557.5" type="line"/>
      <point x="640.0" y="1254.0" type="line"/>
    </contour>
  </outline>
</glyph>
<glyph name="a" format="2">
  <advance width="909"/>
  <unicode hex="0061"/>
  <anchor x="532.0" y="1089.0" name="top"/>
  <outline>
    <contour>
      <point x="99.0" y="295.20000000000005" type="qcurve" smooth="yes"/>
      <point x="99.0" y="447.1053266331658"/>
      <point x="287.08" y="624.3"/>
      <point x="446.48" y="624.3" type="qcurve" smooth="yes"/>
      <point x="687.44" y="624.3" type="line"/>
      <point x="687.44" y="757.12" type="line" smooth="yes"/>
      <point x="687.44" y="892.8000000000001"/>
      <point x="583.746734006734" y="1054.72"/>
      <point x="462.22" y="1054.72" type="qcurve" smooth="yes"/>
      <point x="336.92627062706265" y="1054.72"/>
      <point x="225.68000000000006" y="907.7066666666666"/>
      <point x="225.68000000000006" y="801.42" type="qcurve" smooth="yes"/>
      <point x="225.68000000000006" y="786.42" type="line"/>
      <point x="165.68" y="786.42" type="line"/>
      <point x="165.68" y="801.92" type="line" smooth="yes"/>
      <point x="165.68" y="932.4015384615384"/>
      <point x="315.14" y="1119.12"/>
      <point x="461.8599999999999" y="1119.12" type="qcurve" smooth="yes"/>
      <point x="599.8399999999999" y="1119.12"/>
      <point x="751.0799999999999" y="937.12"/>
      <point x="751.0799999999999" y="757.12" type="qcurve" smooth="yes"/>
      <point x="751.0799999999999" y="240.0" type="line" smooth="yes"/>
      <point x="751.0799999999999" y="175.0"/>
      <point x="772.32" y="60.0"/>
      <point x="790.7399999999999" y="16.0" type="qcurve"/>
      <point x="790.7399999999999" y="0.0" type="line"/>
      <point x="733.56" y="0.0" type="line"/>
      <point x="716.9425855649447" y="28.752525776884358"/>
      <point x="695.4717177985904" y="121.10376268546165"/>
      <point x="690.28" y="167.3" type="qcurve"/>
      <point x="654.4392368673997" y="103.302995594842"/>
      <point x="492.30634734058174" y="-20.0"/>
      <point x="374.14" y="-20.0" type="qcurve" smooth="yes"/>
      <point x="246.4384435797665" y="-20.0"/>
      <point x="99.0" y="141.34545454545454"/>
    </contour>
    <contour>
      <point x="162.64" y="295.40000000000003" type="qcurve" smooth="yes"/>
      <point x="162.64" y="166.175"/>
      <point x="282.09088351478954" y="40.40000000000002"/>
      <point x="389.12" y="40.40000000000002" type="qcurve" smooth="yes"/>
      <point x="500.2351927437642" y="40.40000000000002"/>
      <point x="687.44" y="219.08064135021095"/>
      <point x="687.44" y="322.59999999999997" type="qcurve"/>
      <point x="687.44" y="560.0" type="line"/>
      <point x="461.72" y="560.0" type="line" smooth="yes"/>
      <point x="319.6666321243523" y="560.0"/>
      <point x="162.64" y="419.1390816326531"/>
    </contour>
  </outline>
</glyph>
<glyph name="b" format="2">
  <advance width="967"/>
  <unicode hex="0062"/>
  <outline>
    <contour>
      <point x="153.0" y="0.0" type="line"/>
      <point x="153.0" y="1536.0" type="line"/>
      <point x="216.64" y="1536.0" type="line"/>
      <point x="216.64" y="956.5200000000001" type="line"/>
      <point x="261.94724944748856" y="1023.5362861959441"/>
      <point x="415.9971631205674" y="1109.12"/>
      <point x="521.42" y="1109.12" type="qcurve" smooth="yes"/>
      <point x="686.76" y="1109.12"/>
      <point x="873.1399999999999" y="798.5154179566564"/>
      <point x="873.1399999999999" y="560.56" type="qcurve" smooth="yes"/>
      <point x="873.1399999999999" y="528.56" type="line" smooth="yes"/>
      <point x="873.1399999999999" y="290.5056603773585"/>
      <point x="686.76" y="-20.0"/>
      <point x="521.42" y="-20.0" type="qcurve" smooth="yes"/>
      <point x="416.0859813084112" y="-20.0"/>
      <point x="255.57193358421836" y="71.8799410808437"/>
      <point x="212.32000000000005" y="135.60000000000002" type="qcurve"/>
      <point x="214.38000000000005" y="135.60000000000002" type="line"/>
      <point x="213.34000000000003" y="0.0" type="line"/>
    </contour>
    <contour>
      <point x="216.64" y="220.76000000000005" type="line"/>
      <point x="246.56728607254138" y="145.3277461507259"/>
      <point x="392.51799457994576" y="43.800000000000026"/>
      <point x="497.44000000000005" y="43.800000000000026" type="qcurve" smooth="yes"/>
      <point x="654.4865989847715" y="43.800000000000026"/>
      <point x="808.98" y="323.46391534391535"/>
      <point x="808.98" y="528.56" type="qcurve" smooth="yes"/>
      <point x="808.98" y="560.56" type="line" smooth="yes"/>
      <point x="808.98" y="765.6276923076923"/>
      <point x="654.4865989847715" y="1045.3200000000002"/>
      <point x="497.44000000000005" y="1045.3200000000002" type="qcurve" smooth="yes"/>
      <point x="392.51799457994576" y="1045.3200000000002"/>
      <point x="248.0382385538046" y="935.7434012041258"/>
      <point x="216.64" y="859.86" type="qcurve"/>
    </contour>
  </outline>
</glyph>
<glyph name="c" format="2">
  <advance width="816"/>
  <unicode hex="0063"/>
  <anchor x="538.0" y="0" name="bottom"/>
  <outline>
    <contour>
      <point x="93.5" y="528.56" type="qcurve" smooth="yes"/>
      <point x="93.5" y="560.56" type="line" smooth="yes"/>
      <point x="93.5" y="806.7034146341464"/>
      <point x="290.78000000000003" y="1119.12"/>
      <point x="466.15999999999997" y="1119.12" type="qcurve" smooth="yes"/>
      <point x="628.4" y="1119.12"/>
      <point x="788.04" y="890.2578294573643"/>
      <point x="788.04" y="740.92" type="qcurve" smooth="yes"/>
      <point x="788.04" y="735.92" type="line"/>
      <point x="727.9399999999999" y="735.92" type="line"/>
      <point x="727.9399999999999" y="740.92" type="line" smooth="yes"/>
      <point x="727.9399999999999" y="865.9678260869565"/>
      <point x="604.1246290801187" y="1056.52"/>
      <point x="466.15999999999997" y="1056.52" type="qcurve" smooth="yes"/>
      <point x="307.36302729528535" y="1056.52"/>
      <point x="157.66000000000003" y="769.2284797905417"/>
      <point x="157.66000000000003" y="560.56" type="qcurve" smooth="yes"/>
      <point x="157.66000000000003" y="528.56" type="line" smooth="yes"/>
      <point x="157.66000000000003" y="319.96742268041237"/>
      <point x="307.36302729528535" y="32.60000000000001"/>
      <point x="466.15999999999997" y="32.60000000000001" type="qcurve" smooth="yes"/>
      <point x="604.1246290801187" y="32.60000000000001"/>
      <point x="727.9399999999999" y="223.1521739130435"/>
      <point x="727.9399999999999" y="348.2" type="qcurve" smooth="yes"/>
      <point x="727.9399999999999" y="353.2" type="line"/>
      <point x="788.04" y="353.2" type="line"/>
      <point x="788.04" y="348.2" type="line" smooth="yes"/>
      <point x="788.04" y="198.86217054263565"/>
      <point x="628.4" y="-30.0"/>
      <point x="466.15999999999997" y="-30.0" type="qcurve" smooth="yes"/>
      <point x="290.78000000000003" y="-30.0"/>
      <point x="93.5" y="282.37985185185187"/>
    </contour>
  </outline>
</glyph>
<glyph name="d" format="2">
  <advance width="967"/>
  <unicode hex="0064"/>
  <outline>
    <contour>
      <point x="93.5" y="528.56" type="qcurve" smooth="yes"/>
      <point x="93.5" y="560.56" type="line" smooth="yes"/>
      <point x="93.5" y="798.5154179566564"/>
      <point x="274.38" y="1109.12"/>
      <point x="439.71999999999997" y="1109.12" type="qcurve" smooth="yes"/>
      <point x="544.72" y="1109.12"/>
      <point x="698.8" y="1029.1799999999998"/>
      <point x="750.0" y="961.5200000000001" type="qcurve"/>
      <point x="750.0" y="1536.0" type="line"/>
      <point x="813.6399999999999" y="1536.0" type="line"/>
      <point x="813.6399999999999" y="0.0" type="line"/>
      <point x="753.3" y="0.0" type="line"/>
      <point x="752.2599999999999" y="135.60000000000002" type="line"/>
      <point x="751.8199999999999" y="131.10000000000002" type="line"/>
      <point x="704.4799999999999" y="70.38"/>
      <point x="539.9" y="-20.0"/>
      <point x="434.71999999999997" y="-20.0" type="qcurve" smooth="yes"/>
      <point x="269.38" y="-20.0"/>
      <point x="93.5" y="290.5056603773585"/>
    </contour>
    <contour>
      <point x="157.66000000000003" y="528.56" type="line" smooth="yes"/>
      <point x="157.66000000000003" y="323.46391534391535"/>
      <point x="295.21999999999997" y="43.800000000000026"/>
      <point x="452.19999999999993" y="43.800000000000026" type="qcurve" smooth="yes"/>
      <point x="557.72" y="43.800000000000026"/>
      <point x="716.42" y="149.42"/>
      <point x="750.0" y="219.26000000000005" type="qcurve"/>
      <point x="750.0" y="864.86" type="line"/>
      <point x="716.74" y="940.2"/>
      <point x="563.72" y="1045.3200000000002"/>
      <point x="458.19999999999993" y="1045.3200000000002" type="qcurve" smooth="yes"/>
      <point x="301.21999999999997" y="1045.3200000000002"/>
      <point x="157.66000000000003" y="765.6276923076923"/>
      <point x="157.66000000000003" y="560.56" type="qcurve" smooth="yes"/>
    </contour>
  </outline>
</glyph>
<glyph name="e" format="2">
  <advance width="860"/>
  <unicode hex="0065"/>
  <anchor x="531.0" y="1089.0" name="top"/>
  <outline>
    <contour>
      <point x="94" y="529" type="qcurve" smooth="yes"/>
      <point x="94" y="561" type="line" smooth="yes"/>
      <point x="94" y="807"/>
      <point x="289" y="1119"/>
      <point x="453" y="1119" type="qcurve" smooth="yes"/>
      <point x="614" y="1119"/>
      <point x="781" y="827"/>
      <point x="781" y="579" type="qcurve" smooth="yes"/>
      <point x="781" y="544" type="line"/>
      <point x="113" y="544" type="line"/>
      <point x="112" y="606" type="line"/>
      <point x="716" y="606" type="line"/>
      <point x="715" y="583" type="line"/>
      <point x="715.0" y="786.0"/>
      <point x="594" y="1058"/>
      <point x="433" y="1058" type="qcurve" smooth="yes"/>
      <point x="304" y="1058"/>
      <point x="152" y="772"/>
      <point x="152" y="561" type="qcurve" smooth="yes"/>
      <point x="152" y="529" type="line" smooth="yes"/>
      <point x="152" y="317"/>
      <point x="313" y="31"/>
      <point x="484" y="31" type="qcurve" smooth="yes"/>
      <point x="567" y="31"/>
      <point x="683" y="109"/>
      <point x="730" y="174" type="qcurve"/>
      <point x="778" y="124" type="line"/>
      <point x="736" y="64"/>
      <point x="590" y="-30.0"/>
      <point x="484" y="-30.0" type="qcurve" smooth="yes"/>
      <point x="294" y="-30.0"/>
      <point x="94" y="282"/>
    </contour>
  </outline>
</glyph>
<glyph name="f" format="2">
  <advance width="498"/>
  <unicode hex="0066"/>
  <outline>
    <contour>
      <point x="200.0" y="0.0" type="line"/>
      <point x="200.0" y="1171.5" type="line" smooth="yes"/>
      <point x="200.0" y="1359.5"/>
      <point x="338.0" y="1556.0"/>
      <point x="457.5" y="1556.0" type="qcurve" smooth="yes"/>
      <point x="484.5" y="1556.0"/>
      <point x="542.5" y="1546.5"/>
      <point x="566.0" y="1540.0" type="qcurve"/>
      <point x="555.5" y="1483.0" type="line"/>
      <point x="538.0" y="1489.0"/>
      <point x="483.5" y="1498.5"/>
      <point x="455.5" y="1498.5" type="qcurve" smooth="yes"/>
      <point x="364.5" y="1498.5"/>
      <point x="264.0" y="1335.0"/>
      <point x="264.0" y="1171.5" type="qcurve" smooth="yes"/>
      <point x="264.0" y="1062.5" type="line"/>
      <point x="264.0" y="1052.0" type="line"/>
      <point x="264.0" y="0.0" type="line"/>
    </contour>
    <contour>
      <point x="25.0" y="1026.0" type="line"/>
      <point x="25.0" y="1089.0" type="line"/>
      <point x="225.5" y="1089.0" type="line"/>
      <point x="237.5" y="1089.0" type="line"/>
      <point x="497.0" y="1089.0" type="line"/>
      <point x="497.0" y="1026.0" type="line"/>
    </contour>
  </outline>
</glyph>
<glyph name="g" format="2">
  <advance width="967"/>
  <unicode hex="0067"/>
  <outline>
    <contour>
      <point x="124.72" y="-334.0" type="qcurve"/>
      <point x="151.98" y="-272.1" type="line"/>
      <point x="197.57999999999998" y="-314.02"/>
      <point x="347.56" y="-370.40000000000003"/>
      <point x="443.88" y="-370.40000000000003" type="qcurve" smooth="yes"/>
      <point x="575.5729620253164" y="-370.40000000000003"/>
      <point x="750.0" y="-162.35999999999999"/>
      <point x="750.0" y="29.60000000000001" type="qcurve" smooth="yes"/>
      <point x="750.0" y="127.60000000000002" type="line"/>
      <point x="697.8" y="61.44"/>
      <point x="535.22" y="-20.0"/>
      <point x="429.71999999999997" y="-20.0" type="qcurve" smooth="yes"/>
      <point x="264.38" y="-20.0"/>
      <point x="93.5" y="290.5056603773585"/>
      <point x="93.5" y="528.56" type="qcurve" smooth="yes"/>
      <point x="93.5" y="560.56" type="line" smooth="yes"/>
      <point x="93.5" y="798.5154179566564"/>
      <point x="269.38" y="1109.12"/>
      <point x="434.71999999999997" y="1109.12" type="qcurve" smooth="yes"/>
      <point x="547.4" y="1109.12"/>
      <point x="713.4799999999999" y="1016.74"/>
      <point x="754.3199999999999" y="948.5200000000001" type="qcurve"/>
      <point x="752.7599999999999" y="948.5200000000001" type="line"/>
      <point x="753.3" y="1089.12" type="line"/>
      <point x="813.6399999999999" y="1089.12" type="line"/>
      <point x="813.6399999999999" y="29.60000000000001" type="line" smooth="yes"/>
      <point x="813.6399999999999" y="-195.07999999999998"/>
      <point x="601.1999999999999" y="-436.0"/>
      <point x="439.0999999999999" y="-436.0" type="qcurve" smooth="yes"/>
      <point x="341.78" y="-436.0"/>
      <point x="181.7" y="-380.65999999999997"/>
    </contour>
    <contour>
      <point x="157.66000000000003" y="528.56" type="line" smooth="yes"/>
      <point x="157.66000000000003" y="323.46391534391535"/>
      <point x="296.21999999999997" y="43.800000000000026"/>
      <point x="453.19999999999993" y="43.800000000000026" type="qcurve" smooth="yes"/>
      <point x="558.72" y="43.800000000000026"/>
      <point x="713.74" y="154.42"/>
      <point x="750.0" y="224.26000000000005" type="qcurve"/>
      <point x="750.0" y="864.86" type="line"/>
      <point x="716.42" y="938.2"/>
      <point x="564.22" y="1045.3200000000002"/>
      <point x="458.69999999999993" y="1045.3200000000002" type="qcurve" smooth="yes"/>
      <point x="307.21999999999997" y="1045.3200000000002"/>
      <point x="157.66000000000003" y="765.6276923076923"/>
      <point x="157.66000000000003" y="560.56" type="qcurve" smooth="yes"/>
    </contour>
  </outline>
</glyph>
<glyph name="h" format="2">
  <advance width="939"/>
  <unicode hex="0068"/>
  <outline>
    <contour>
      <point x="153.0" y="0.0" type="line"/>
      <point x="153.0" y="1536.0" type="line"/>
      <point x="216.64" y="1536.0" type="line"/>
      <point x="216.64" y="935.22" type="line"/>
      <point x="267.94" y="1014.4200000000001"/>
      <point x="410.65999999999997" y="1109.12"/>
      <point x="518.96" y="1109.12" type="qcurve" smooth="yes"/>
      <point x="641.3199999999999" y="1109.12"/>
      <point x="795.52" y="953.9399999999999"/>
      <point x="795.52" y="771.44" type="qcurve" smooth="yes"/>
      <point x="795.52" y="0.0" type="line"/>
      <point x="732.3799999999999" y="0.0" type="line"/>
      <point x="732.3799999999999" y="773.44" type="line" smooth="yes"/>
      <point x="732.3799999999999" y="919.2600000000001"/>
      <point x="604.06" y="1046.52"/>
      <point x="510.98" y="1046.52" type="qcurve" smooth="yes"/>
      <point x="405.38000000000005" y="1046.52"/>
      <point x="260.3" y="926.6"/>
      <point x="216.64" y="850.74" type="qcurve"/>
      <point x="216.64" y="0.0" type="line"/>
    </contour>
  </outline>
</glyph>
<glyph name="i" format="2">
  <advance width="406"/>
  <unicode hex="0069"/>
  <outline>
    <contour>
      <point x="171.5" y="0.0" type="line"/>
      <point x="171.5" y="1089.12" type="line"/>
      <point x="235.14" y="1089.12" type="line"/>
      <point x="235.14" y="0.0" type="line"/>
    </contour>
    <contour>
      <point x="167.57999999999998" y="1441.28" type="qcurve" smooth="yes"/>
      <point x="167.57999999999998" y="1466.6399999999999"/>
      <point x="186.58" y="1500.62"/>
      <point x="203.32000000000002" y="1500.62" type="qcurve" smooth="yes"/>
      <point x="220.06" y="1500.62"/>
      <point x="239.06" y="1466.6399999999999"/>
      <point x="239.06" y="1441.28" type="qcurve" smooth="yes"/>
      <point x="239.06" y="1415.9199999999998"/>
      <point x="220.06" y="1381.9399999999998"/>
      <point x="203.32000000000002" y="1381.9399999999998" type="qcurve" smooth="yes"/>
      <point x="186.58" y="1381.9399999999998"/>
      <point x="167.57999999999998" y="1415.9199999999998"/>
    </contour>
  </outline>
</glyph>
<glyph name="j" format="2">
  <advance width="406"/>
  <unicode hex="006A"/>
  <outline>
    <contour>
      <point x="-75.85999999999999" y="-415.58" type="qcurve"/>
      <point x="-75.85999999999999" y="-341.46" type="line"/>
      <point x="-57.579999999999984" y="-347.28"/>
      <point x="-0.9999999999999893" y="-359.59999999999997"/>
      <point x="24.84000000000002" y="-359.59999999999997" type="qcurve" smooth="yes"/>
      <point x="92.53999999999999" y="-359.59999999999997"/>
      <point x="171.0" y="-248.46266666666668"/>
      <point x="171.0" y="-117.51999999999998" type="qcurve" smooth="yes"/>
      <point x="171.0" y="1089.12" type="line"/>
      <point x="234.64" y="1089.12" type="line"/>
      <point x="234.64" y="-90.0" type="line" smooth="yes"/>
      <point x="234.64" y="-270.0"/>
      <point x="116.03837791199311" y="-436.0"/>
      <point x="21.12000000000001" y="-436.0" type="qcurve" smooth="yes"/>
      <point x="-4.743079723334514" y="-436.0"/>
      <point x="-63.81568773348485" y="-422.02566558286475"/>
    </contour>
    <contour>
      <point x="167.07999999999998" y="1441.28" type="qcurve" smooth="yes"/>
      <point x="167.07999999999998" y="1466.6399999999999"/>
      <point x="186.08" y="1500.62"/>
      <point x="202.82000000000002" y="1500.62" type="qcurve" smooth="yes"/>
      <point x="219.56" y="1500.62"/>
      <point x="238.56" y="1466.6399999999999"/>
      <point x="238.56" y="1441.28" type="qcurve" smooth="yes"/>
      <point x="238.56" y="1415.9199999999998"/>
      <point x="219.56" y="1381.9399999999998"/>
      <point x="202.82000000000002" y="1381.9399999999998" type="qcurve" smooth="yes"/>
      <point x="186.08" y="1381.9399999999998"/>
      <point x="167.07999999999998" y="1415.9199999999998"/>
    </contour>
  </outline>
</glyph>
<glyph name="k" format="2">
  <advance width="850"/>
  <unicode hex="006B"/>
  <outline>
    <contour>
      <point x="153.0" y="0.0" type="line"/>
      <point x="153.0" y="1536.0" type="line"/>
      <point x="216" y="1536.0" type="line"/>
      <point x="216" y="569" type="line"/>
      <point x="707.0" y="1089.0" type="line"/>
      <point x="791" y="1089.0" type="line"/>
      <point x="216.0" y="486" type="line"/>
      <point x="216.0" y="0.0" type="line"/>
    </contour>
    <contour>
      <point x="782" y="0.0" type="line"/>
      <point x="327.0" y="655.0" type="line"/>
      <point x="371" y="698" type="line"/>
      <point x="856.0" y="0.0" type="line"/>
    </contour>
  </outline>
</glyph>
<glyph name="l" format="2">
  <advance width="404"/>
  <unicode hex="006C"/>
  <outline>
    <contour>
      <point x="170.5" y="0.0" type="line"/>
      <point x="170.5" y="1536.0" type="line"/>
      <point x="234.14" y="1536.0" type="line"/>
      <point x="234.14" y="0.0" type="line"/>
    </contour>
  </outline>
</glyph>
<glyph name="m" format="2">
  <advance width="1458"/>
  <unicode hex="006D"/>
  <outline>
    <contour>
      <point x="153.0" y="0.0" type="line"/>
      <point x="153.0" y="1089.12" type="line"/>
      <point x="213.34000000000003" y="1089.12" type="line"/>
      <point x="213.88000000000005" y="944.42" type="line"/>
      <point x="212.32000000000005" y="944.42" type="line"/>
      <point x="264.12" y="1024.98"/>
      <point x="412.65999999999997" y="1109.12"/>
      <point x="506.46000000000004" y="1109.12" type="qcurve" smooth="yes"/>
      <point x="598.5" y="1109.12"/>
      <point x="727.6999999999999" y="1012.6600000000001"/>
      <point x="749.74" y="928.86" type="qcurve"/>
      <point x="747.8399999999999" y="928.86" type="line"/>
      <point x="792.7235509876419" y="1008.4676026034717"/>
      <point x="958.651111111111" y="1109.12"/>
      <point x="1057.34" y="1109.12" type="qcurve" smooth="yes"/>
      <point x="1169.2241379310344" y="1109.12"/>
      <point x="1315.3999999999999" y="956.3199999999999"/>
      <point x="1315.3999999999999" y="776.94" type="qcurve" smooth="yes"/>
      <point x="1315.3999999999999" y="0.0" type="line"/>
      <point x="1251.7599999999998" y="0.0" type="line"/>
      <point x="1251.7599999999998" y="778.94" type="line" smooth="yes"/>
      <point x="1249.8" y="921.7600000000001"/>
      <point x="1135.44" y="1046.52"/>
      <point x="1033.3600000000001" y="1046.52" type="qcurve" smooth="yes"/>
      <point x="943.7600000000002" y="1046.52"/>
      <point x="810.3599999999999" y="939.0999999999999"/>
      <point x="766.02" y="859.24" type="qcurve"/>
      <point x="766.02" y="0.0" type="line"/>
      <point x="702.3799999999999" y="0.0" type="line"/>
      <point x="702.3799999999999" y="778.94" type="line" smooth="yes"/>
      <point x="700.4200000000001" y="921.7600000000001"/>
      <point x="585.06" y="1046.52"/>
      <point x="482.98" y="1046.52" type="qcurve" smooth="yes"/>
      <point x="393.88000000000005" y="1046.52"/>
      <point x="259.98" y="939.0999999999999"/>
      <point x="216.64" y="859.24" type="qcurve"/>
      <point x="216.64" y="0.0" type="line"/>
    </contour>
  </outline>
</glyph>
<glyph name="n" format="2">
  <advance width="939"/>
  <unicode hex="006E"/>
  <anchor x="571.0" y="1089.0" name="top"/>
  <outline>
    <contour>
      <point x="153.0" y="0.0" type="line"/>
      <point x="153.0" y="1089.12" type="line"/>
      <point x="213.34000000000003" y="1089.12" type="line"/>
      <point x="214.38000000000005" y="941.42" type="line"/>
      <point x="211.82000000000005" y="941.42" type="line"/>
      <point x="265.38" y="1023.98"/>
      <point x="426.70759725400455" y="1109.12"/>
      <point x="525.46" y="1109.12" type="qcurve" smooth="yes"/>
      <point x="647.3199999999999" y="1109.12"/>
      <point x="795.52" y="953.9601526717557"/>
      <point x="795.52" y="771.44" type="qcurve" smooth="yes"/>
      <point x="795.52" y="0.0" type="line"/>
      <point x="732.3799999999999" y="0.0" type="line"/>
      <point x="732.3799999999999" y="773.44" type="line" smooth="yes"/>
      <point x="732.3799999999999" y="920.2850212765957"/>
      <point x="608.067593220339" y="1046.52"/>
      <point x="496.98" y="1046.52" type="qcurve" smooth="yes"/>
      <point x="402.49351955307264" y="1046.52"/>
      <point x="261.7080317428721" y="938.6623740213207"/>
      <point x="216.64" y="855.74" type="qcurve"/>
      <point x="216.64" y="0.0" type="line"/>
    </contour>
  </outline>
</glyph>
<glyph name="o" format="2">
  <advance width="955"/>
  <unicode hex="006F"/>
  <anchor x="553.0" y="1089.0" name="top"/>
  <outline>
    <contour>
      <point x="93.5" y="528.56" type="qcurve" smooth="yes"/>
      <point x="93.5" y="560.56" type="line" smooth="yes"/>
      <point x="93.5" y="806.7034146341464"/>
      <point x="302.56" y="1119.12"/>
      <point x="477.44000000000005" y="1119.12" type="qcurve" smooth="yes"/>
      <point x="652.3199999999999" y="1119.12"/>
      <point x="862.3800000000001" y="806.7034146341464"/>
      <point x="862.3800000000001" y="560.56" type="qcurve" smooth="yes"/>
      <point x="862.3800000000001" y="528.56" type="line" smooth="yes"/>
      <point x="862.3800000000001" y="282.37985185185187"/>
      <point x="652.3199999999999" y="-30.0"/>
      <point x="477.44000000000005" y="-30.0" type="qcurve" smooth="yes"/>
      <point x="302.56" y="-30.0"/>
      <point x="93.5" y="282.37985185185187"/>
    </contour>
    <contour>
      <point x="157.66000000000003" y="560.56" type="qcurve" smooth="yes"/>
      <point x="157.66000000000003" y="528.56" type="line" smooth="yes"/>
      <point x="157.66000000000003" y="305.52288659793817"/>
      <point x="320.76" y="33.800000000000026"/>
      <point x="477.44000000000005" y="33.800000000000026" type="qcurve" smooth="yes"/>
      <point x="634.12" y="33.800000000000026"/>
      <point x="798.2199999999999" y="305.52288659793817"/>
      <point x="798.2199999999999" y="528.56" type="qcurve" smooth="yes"/>
      <point x="798.2199999999999" y="560.56" type="line" smooth="yes"/>
      <point x="798.2199999999999" y="778.6730158730159"/>
      <point x="634.12" y="1055.3200000000002"/>
      <point x="477.44000000000005" y="1055.3200000000002" type="qcurve" smooth="yes"/>
      <point x="321.76" y="1055.3200000000002"/>
      <point x="157.66000000000003" y="778.6730158730159"/>
    </contour>
  </outline>
</glyph>
<glyph name="p" format="2">
  <advance width="967"/>
  <unicode hex="0070"/>
  <outline>
    <contour>
      <point x="148.0" y="-416.0" type="line"/>
      <point x="148.0" y="1089.12" type="line"/>
      <point x="208.34000000000003" y="1089.12" type="line"/>
      <point x="209.38000000000005" y="953.5200000000001" type="line"/>
      <point x="207.32000000000005" y="953.5200000000001" type="line"/>
      <point x="250.66000000000003" y="1017.24"/>
      <point x="416.24" y="1109.12"/>
      <point x="521.42" y="1109.12" type="qcurve" smooth="yes"/>
      <point x="686.76" y="1109.12"/>
      <point x="873.1399999999999" y="798.5154179566564"/>
      <point x="873.1399999999999" y="560.56" type="qcurve" smooth="yes"/>
      <point x="873.1399999999999" y="528.56" type="line" smooth="yes"/>
      <point x="873.1399999999999" y="290.5056603773585"/>
      <point x="686.76" y="-20.0"/>
      <point x="521.42" y="-20.0" type="qcurve" smooth="yes"/>
      <point x="415.91999999999996" y="-20.0"/>
      <point x="261.84000000000003" y="59.44"/>
      <point x="211.64" y="122.60000000000002" type="qcurve"/>
      <point x="211.64" y="-416.0" type="line"/>
    </contour>
    <contour>
      <point x="211.64" y="219.26000000000005" type="line"/>
      <point x="244.39999999999998" y="149.42"/>
      <point x="392.4200000000001" y="43.800000000000026"/>
      <point x="497.44000000000005" y="43.800000000000026" type="qcurve" smooth="yes"/>
      <point x="654.4200000000001" y="43.800000000000026"/>
      <point x="808.98" y="323.46391534391535"/>
      <point x="808.98" y="528.56" type="qcurve" smooth="yes"/>
      <point x="808.98" y="560.56" type="line" smooth="yes"/>
      <point x="808.98" y="765.6276923076923"/>
      <point x="654.4200000000001" y="1045.3200000000002"/>
      <point x="497.44000000000005" y="1045.3200000000002" type="qcurve" smooth="yes"/>
      <point x="392.4200000000001" y="1045.3200000000002"/>
      <point x="245.22000000000003" y="939.7"/>
      <point x="211.64" y="869.86" type="qcurve"/>
    </contour>
  </outline>
</glyph>
<glyph name="q" format="2">
  <advance width="967"/>
  <unicode hex="0071"/>
  <outline>
    <contour>
      <point x="93.5" y="529.0" type="qcurve" smooth="yes"/>
      <point x="93.5" y="561.0" type="line" smooth="yes"/>
      <point x="93.5" y="799.0"/>
      <point x="264.5" y="1109.0"/>
      <point x="430.0" y="1109.0" type="qcurve" smooth="yes"/>
      <point x="535.0" y="1109.0"/>
      <point x="710.0" y="1017.0"/>
      <point x="753.0" y="953.0" type="qcurve"/>
      <point x="751.5" y="953.0" type="line"/>
      <point x="752.5" y="1089.0" type="line"/>
      <point x="813.0" y="1089.0" type="line"/>
      <point x="813.0" y="-416.0" type="line"/>
      <point x="749.0" y="-416.0" type="line"/>
      <point x="749.0" y="123.0" type="line"/>
      <point x="749.0" y="123.0" type="line"/>
      <point x="698.5" y="59.0"/>
      <point x="535.0" y="-20.0"/>
      <point x="430.0" y="-20.0" type="qcurve" smooth="yes"/>
      <point x="264.5" y="-20.0"/>
      <point x="93.5" y="291.0"/>
    </contour>
    <contour>
      <point x="157.66000000000003" y="528.56" type="line" smooth="yes"/>
      <point x="157.66000000000003" y="323.46391534391535"/>
      <point x="296.21999999999997" y="43.800000000000026"/>
      <point x="453.19999999999993" y="43.800000000000026" type="qcurve" smooth="yes"/>
      <point x="558.72" y="43.800000000000026"/>
      <point x="715.74" y="149.42"/>
      <point x="749.0" y="219.26000000000005" type="qcurve"/>
      <point x="749.0" y="869.86" type="line"/>
      <point x="715.42" y="939.7"/>
      <point x="558.72" y="1045.3200000000002"/>
      <point x="453.19999999999993" y="1045.3200000000002" type="qcurve" smooth="yes"/>
      <point x="296.21999999999997" y="1045.3200000000002"/>
      <point x="157.66000000000003" y="765.6276923076923"/>
      <point x="157.66000000000003" y="560.56" type="qcurve" smooth="yes"/>
    </contour>
  </outline>
</glyph>
<glyph name="r" format="2">
  <advance width="598"/>
  <unicode hex="0072"/>
  <outline>
    <contour>
      <point x="153.0" y="0.0" type="line"/>
      <point x="153.0" y="1089.12" type="line"/>
      <point x="213.34000000000003" y="1089.12" type="line"/>
      <point x="213.88000000000005" y="957.32" type="line"/>
      <point x="212.32000000000005" y="957.32" type="line"/>
      <point x="255.2788996766634" y="1022.7238254662603"/>
      <point x="389.87014164305947" y="1119.12"/>
      <point x="482.02" y="1119.12" type="qcurve" smooth="yes"/>
      <point x="505.5799999999999" y="1119.12"/>
      <point x="554.02" y="1109.12"/>
      <point x="564.3" y="1105.12" type="qcurve"/>
      <point x="564.3" y="1041.9" type="line"/>
      <point x="543.56" y="1045.9"/>
      <point x="498.94000000000005" y="1053.62"/>
      <point x="473.05999999999995" y="1053.62" type="qcurve" smooth="yes"/>
      <point x="389.02799999999996" y="1053.62"/>
      <point x="253.26913358962247" y="943.6780438519083"/>
      <point x="216.64" y="863.28" type="qcurve"/>
      <point x="216.64" y="0.0" type="line"/>
    </contour>
  </outline>
</glyph>
<glyph name="s" format="2">
  <advance width="812"/>
  <unicode hex="0073"/>
  <outline>
    <contour>
      <point x="83.0" y="320.0" type="line"/>
      <point x="147" y="320.0" type="line"/>
      <point x="147" y="315.0" type="line" smooth="yes"/>
      <point x="147" y="170"/>
      <point x="290" y="33"/>
      <point x="407" y="33" type="qcurve" smooth="yes"/>
      <point x="523" y="33"/>
      <point x="656" y="163"/>
      <point x="656" y="270" type="qcurve" smooth="yes"/>
      <point x="656" y="382"/>
      <point x="540" y="493"/>
      <point x="395" y="535" type="qcurve" smooth="yes"/>
      <point x="250" y="576"/>
      <point x="139" y="726"/>
      <point x="139" y="836" type="qcurve" smooth="yes"/>
      <point x="139" y="962"/>
      <point x="300" y="1119"/>
      <point x="432" y="1119" type="qcurve" smooth="yes"/>
      <point x="564" y="1119"/>
      <point x="725" y="914"/>
      <point x="725" y="775" type="qcurve" smooth="yes"/>
      <point x="725" y="760" type="line"/>
      <point x="662" y="760" type="line"/>
      <point x="662" y="765" type="line" smooth="yes"/>
      <point x="662.0" y="888"/>
      <point x="539" y="1056"/>
      <point x="432" y="1056" type="qcurve" smooth="yes"/>
      <point x="325" y="1056"/>
      <point x="203" y="942"/>
      <point x="203" y="848" type="qcurve" smooth="yes"/>
      <point x="203" y="751"/>
      <point x="289" y="632"/>
      <point x="435" y="591" type="qcurve" smooth="yes"/>
      <point x="580" y="550"/>
      <point x="720" y="407"/>
      <point x="720" y="281" type="qcurve" smooth="yes"/>
      <point x="720" y="146"/>
      <point x="564" y="-30.0"/>
      <point x="407" y="-30.0" type="qcurve" smooth="yes"/>
      <point x="249" y="-30.0"/>
      <point x="83.0" y="156"/>
      <point x="83.0" y="315.0" type="qcurve" smooth="yes"/>
    </contour>
  </outline>
</glyph>
<glyph name="t" format="2">
  <advance width="553"/>
  <unicode hex="0074"/>
  <outline>
    <contour>
      <point x="8.0" y="1025.52" type="line"/>
      <point x="8.0" y="1089.12" type="line"/>
      <point x="496.76" y="1089.12" type="line"/>
      <point x="496.76" y="1025.52" type="line"/>
    </contour>
    <contour>
      <point x="197.94" y="272.0" type="qcurve" smooth="yes"/>
      <point x="197.94" y="1052.12" type="line"/>
      <point x="197.94" y="1062.52" type="line"/>
      <point x="197.94" y="1312.0" type="line"/>
      <point x="261.58" y="1312.0" type="line"/>
      <point x="261.58" y="272.0" type="line" smooth="yes"/>
      <point x="261.58" y="141.88"/>
      <point x="324.98" y="30.69999999999999"/>
      <point x="393.70000000000005" y="30.69999999999999" type="qcurve" smooth="yes"/>
      <point x="416.43999999999994" y="30.69999999999999"/>
      <point x="458.94000000000005" y="41.83999999999999"/>
      <point x="479.20000000000005" y="50.83999999999999" type="qcurve"/>
      <point x="479.20000000000005" y="-9.8" type="line"/>
      <point x="461.69972065744787" y="-17.422381488875004"/>
      <point x="412.44183486238524" y="-30.0"/>
      <point x="381.74" y="-30.0" type="qcurve" smooth="yes"/>
      <point x="296.320350877193" y="-30.0"/>
      <point x="197.94" y="115.76"/>
    </contour>
  </outline>
</glyph>
<glyph name="u" format="2">
  <advance width="939"/>
  <unicode hex="0075"/>
  <anchor x="530.0" y="1089.0" name="top"/>
  <outline>
    <contour>
      <point x="138.0" y="317.68" type="qcurve" smooth="yes"/>
      <point x="138.0" y="1089.12" type="line"/>
      <point x="201.64" y="1089.12" type="line"/>
      <point x="201.64" y="315.68" type="line" smooth="yes"/>
      <point x="201.64" y="169.86"/>
      <point x="322.96000000000004" y="42.60000000000001"/>
      <point x="433.03999999999996" y="42.60000000000001" type="qcurve" smooth="yes"/>
      <point x="528.6399999999999" y="42.60000000000001"/>
      <point x="666.72" y="150.52"/>
      <point x="713.3799999999999" y="233.38" type="qcurve"/>
      <point x="713.3799999999999" y="1089.12" type="line"/>
      <point x="776.52" y="1089.12" type="line"/>
      <point x="776.52" y="0.0" type="line"/>
      <point x="716.18" y="0.0" type="line"/>
      <point x="716.6399999999999" y="147.7" type="line"/>
      <point x="716.7" y="147.7" type="line"/>
      <point x="665.64" y="65.14"/>
      <point x="508.86" y="-20.0"/>
      <point x="410.05999999999995" y="-20.0" type="qcurve" smooth="yes"/>
      <point x="284.7" y="-20.0"/>
      <point x="138.0" y="135.17999999999998"/>
    </contour>
  </outline>
</glyph>
<glyph name="v" format="2">
  <advance width="832"/>
  <unicode hex="0076"/>
  <outline>
    <contour>
      <point x="10" y="1089" type="line"/>
      <point x="79" y="1089" type="line"/>
      <point x="380" y="195" type="line" smooth="yes"/>
      <point x="395" y="151"/>
      <point x="415" y="96"/>
      <point x="418.0" y="78" type="qcurve"/>
      <point x="421.0" y="78" type="line"/>
      <point x="422" y="92"/>
      <point x="443" y="157"/>
      <point x="456" y="196" type="qcurve" smooth="yes"/>
      <point x="757.0" y="1089.0" type="line"/>
      <point x="823" y="1089.0" type="line"/>
      <point x="455" y="0.0" type="line"/>
      <point x="378" y="0.0" type="line"/>
    </contour>
  </outline>
</glyph>
<glyph name="w" format="2">
  <advance width="1351"/>
  <unicode hex="0077"/>
  <outline>
    <contour>
      <point x="40.0" y="1089" type="line"/>
      <point x="112" y="1089" type="line"/>
      <point x="313" y="200.0" type="line" smooth="yes"/>
      <point x="322" y="160"/>
      <point x="337" y="100"/>
      <point x="347" y="60" type="qcurve"/>
      <point x="353" y="60" type="line"/>
      <point x="364" y="100"/>
      <point x="380" y="160"/>
      <point x="391" y="200.0" type="qcurve" smooth="yes"/>
      <point x="643" y="1089" type="line"/>
      <point x="715" y="1089" type="line"/>
      <point x="968" y="200.0" type="line" smooth="yes"/>
      <point x="979" y="160"/>
      <point x="995" y="100"/>
      <point x="1006" y="60" type="qcurve"/>
      <point x="1012" y="60" type="line"/>
      <point x="1023" y="100"/>
      <point x="1034" y="160"/>
      <point x="1043.0" y="200" type="qcurve" smooth="yes"/>
      <point x="1241" y="1089" type="line"/>
      <point x="1310" y="1089" type="line"/>
      <point x="1060" y="0.0" type="line"/>
      <point x="952" y="0.0" type="line"/>
      <point x="717" y="843" type="line" smooth="yes"/>
      <point x="704" y="883"/>
      <point x="687" y="963"/>
      <point x="680" y="1003" type="qcurve"/>
      <point x="676" y="1003" type="line"/>
      <point x="670" y="963"/>
      <point x="652" y="883"/>
      <point x="640" y="843" type="qcurve" smooth="yes"/>
      <point x="400" y="0.0" type="line"/>
      <point x="292" y="0.0" type="line"/>
    </contour>
  </outline>
</glyph>
<glyph name="x" format="2">
  <advance width="848"/>
  <unicode hex="0078"/>
  <outline>
    <contour>
      <point x="32.0" y="0.0" type="line"/>
      <point x="392.0" y="570" type="line"/>
      <point x="409" y="570" type="line"/>
      <point x="729" y="1089" type="line"/>
      <point x="802" y="1089" type="line"/>
      <point x="453" y="533" type="line"/>
      <point x="434" y="533" type="line"/>
      <point x="104" y="0.0" type="line"/>
    </contour>
    <contour>
      <point x="48" y="1089" type="line"/>
      <point x="128" y="1089" type="line"/>
      <point x="449" y="570" type="line"/>
      <point x="462" y="570" type="line"/>
      <point x="827" y="0.0" type="line"/>
      <point x="747" y="0.0" type="line"/>
      <point x="416" y="533" type="line"/>
      <point x="403" y="533" type="line"/>
    </contour>
  </outline>
</glyph>
<glyph name="y" format="2">
  <advance width="949"/>
  <unicode hex="0079"/>
  <anchor x="615.0" y="1089.0" name="top"/>
  <outline>
    <contour>
      <point x="160" y="-416.0" type="qcurve"/>
      <point x="160" y="-355" type="line"/>
      <point x="184" y="-363"/>
      <point x="241" y="-375"/>
      <point x="264" y="-375" type="qcurve" smooth="yes"/>
      <point x="336" y="-375"/>
      <point x="401.0" y="-259"/>
      <point x="487.0" y="2" type="qcurve"/>
      <point x="488" y="3" type="line"/>
      <point x="116" y="1089" type="line"/>
      <point x="191" y="1089" type="line"/>
      <point x="468" y="261" type="line" smooth="yes"/>
      <point x="480.0" y="220"/>
      <point x="509" y="141"/>
      <point x="521" y="101" type="qcurve"/>
      <point x="525" y="101" type="line"/>
      <point x="537" y="141"/>
      <point x="565" y="220"/>
      <point x="577" y="261" type="qcurve" smooth="yes"/>
      <point x="867" y="1089" type="line"/>
      <point x="933" y="1089" type="line"/>
      <point x="502" y="-140.0" type="line" smooth="yes"/>
      <point x="454" y="-276"/>
      <point x="362" y="-436.0"/>
      <point x="265" y="-436.0" type="qcurve" smooth="yes"/>
      <point x="231" y="-436.0"/>
      <point x="183" y="-425"/>
    </contour>
  </outline>
</glyph>
<glyph name="z" format="2">
  <advance width="816"/>
  <unicode hex="007A"/>
  <outline>
    <contour>
      <point x="75.0" y="0.0" type="line"/>
      <point x="75.0" y="68" type="line"/>
      <point x="660.0" y="1029.0" type="line"/>
      <point x="83.0" y="1029.0" type="line"/>
      <point x="83.0" y="1089.0" type="line"/>
      <point x="724.0" y="1089.0" type="line"/>
      <point x="724.0" y="1022" type="line"/>
      <point x="139.0" y="60.0" type="line"/>
      <point x="754" y="60.0" type="line"/>
      <point x="754" y="0.0" type="line"/>
    </contour>
  </outline>
</glyph>
<glyph name="braceleft" format="2">
  <advance width="606"/>
  <unicode hex="007B"/>
  <outline>
    <contour>
      <point x="543.9200000000001" y="-312.0" type="line"/>
      <point x="374.02" y="-312.0"/>
      <point x="186.38000000000002" y="-109.04"/>
      <point x="231.98" y="95.80000000000001" type="qcurve" smooth="yes"/>
      <point x="282.1" y="329.2" type="line" smooth="yes"/>
      <point x="310.96" y="458.71999999999997"/>
      <point x="184.72" y="543.9000000000001"/>
      <point x="83.04000000000002" y="543.9000000000001" type="qcurve"/>
      <point x="83.04000000000002" y="604.0999999999999" type="line"/>
      <point x="184.72" y="604.0999999999999"/>
      <point x="310.96" y="689.28"/>
      <point x="282.1" y="818.8" type="qcurve" smooth="yes"/>
      <point x="231.98" y="1052.1999999999998" type="line" smooth="yes"/>
      <point x="189.88000000000002" y="1240.04"/>
      <point x="357.02" y="1460.0"/>
      <point x="543.9200000000001" y="1460.0" type="qcurve"/>
      <point x="543.9200000000001" y="1399.5" type="line"/>
      <point x="385.5" y="1391.5"/>
      <point x="258.54" y="1216.78"/>
      <point x="297.44000000000005" y="1047.3999999999999" type="qcurve" smooth="yes"/>
      <point x="347.56" y="814.0" type="line" smooth="yes"/>
      <point x="366.8" y="730.5200000000001"/>
      <point x="281.48" y="606.8"/>
      <point x="181.94" y="574.0" type="qcurve"/>
      <point x="281.48" y="541.2"/>
      <point x="366.16" y="417.79999999999995"/>
      <point x="347.56" y="334.0" type="qcurve" smooth="yes"/>
      <point x="297.44000000000005" y="100.6" type="line" smooth="yes"/>
      <point x="254.54000000000002" y="-87.28"/>
      <point x="402.5" y="-242.0"/>
      <point x="543.9200000000001" y="-251.5" type="qcurve"/>
    </contour>
  </outline>
</glyph>
<glyph name="braceright" format="2">
  <advance width="606"/>
  <unicode hex="007D"/>
  <outline>
    <contour>
      <point x="47.640000000000015" y="-312.0" type="qcurve"/>
      <point x="47.640000000000015" y="-251.5" type="line"/>
      <point x="177.56" y="-251.5"/>
      <point x="339.02000000000004" y="-87.78"/>
      <point x="299.12" y="100.6" type="qcurve" smooth="yes"/>
      <point x="254.0" y="334.0" type="line" smooth="yes"/>
      <point x="236.89999999999998" y="418.29999999999995"/>
      <point x="326.58000000000004" y="542.7"/>
      <point x="439.62" y="574.0" type="qcurve"/>
      <point x="329.08000000000004" y="599.8"/>
      <point x="235.89999999999998" y="729.6999999999999"/>
      <point x="254.0" y="814.0" type="qcurve" smooth="yes"/>
      <point x="302.62" y="1047.3999999999999" type="line" smooth="yes"/>
      <point x="344.52000000000004" y="1235.78"/>
      <point x="187.56" y="1399.5"/>
      <point x="47.640000000000015" y="1399.5" type="qcurve"/>
      <point x="47.640000000000015" y="1460.0" type="line"/>
      <point x="221.04000000000002" y="1460.0"/>
      <point x="414.17999999999995" y="1260.54"/>
      <point x="368.08" y="1052.1999999999998" type="qcurve" smooth="yes"/>
      <point x="319.46000000000004" y="818.8" type="line" smooth="yes"/>
      <point x="291.59999999999997" y="688.78"/>
      <point x="441.84" y="604.0999999999999"/>
      <point x="533.52" y="604.0999999999999" type="qcurve"/>
      <point x="533.52" y="543.9000000000001" type="line"/>
      <point x="441.84" y="543.9000000000001"/>
      <point x="293.09999999999997" y="459.21999999999997"/>
      <point x="319.46000000000004" y="329.2" type="qcurve" smooth="yes"/>
      <point x="364.58" y="95.80000000000001" type="line" smooth="yes"/>
      <point x="407.67999999999995" y="-109.54"/>
      <point x="202.04000000000002" y="-312.0"/>
    </contour>
  </outline>
</glyph>
<glyph name="asciitilde" format="2">
  <advance width="1564"/>
  <unicode hex="007E"/>
  <outline>
    <contour>
      <point x="478.0" y="596.5" type="qcurve"/>
      <point x="478.0" y="681.0" type="line"/>
      <point x="504.0" y="716.0"/>
      <point x="571.0" y="749.0"/>
      <point x="617.0" y="749.0" type="qcurve" smooth="yes"/>
      <point x="590.0" y="749.0"/>
      <point x="735.0" y="726.0"/>
      <point x="787.0" y="713.0" type="qcurve" smooth="yes"/>
      <point x="836.0" y="703.0"/>
      <point x="975.0" y="678.0"/>
      <point x="949.0" y="678.0" type="qcurve" smooth="yes"/>
      <point x="999.0" y="678.0"/>
      <point x="1068.0" y="722.0"/>
      <point x="1094.0" y="763.0" type="qcurve"/>
      <point x="1094.0" y="676.5" type="line"/>
      <point x="1069.0" y="643.5"/>
      <point x="1000.0" y="609.5"/>
      <point x="952.0" y="609.5" type="qcurve" smooth="yes"/>
      <point x="981.0" y="609.5"/>
      <point x="855.0" y="626.5"/>
      <point x="813.0" y="633.5" type="qcurve" smooth="yes"/>
      <point x="755.0" y="648.5"/>
      <point x="598.0" y="680.5"/>
      <point x="621.0" y="680.5" type="qcurve" smooth="yes"/>
      <point x="573.0" y="680.5"/>
      <point x="505.0" y="639.5"/>
    </contour>
  </outline>
</glyph>
<glyph name="periodcentered" format="2">
  <advance width="600"/>
  <unicode hex="00B7"/>
  <outline>
    <contour>
      <point x="176.0" y="749.0" type="qcurve" smooth="yes"/>
      <point x="176.0" y="798.0"/>
      <point x="240.0" y="868.0"/>
      <point x="300.0" y="868.0" type="qcurve" smooth="yes"/>
      <point x="360.0" y="868.0"/>
      <point x="424.0" y="798.0"/>
      <point x="424.0" y="749.0" type="qcurve" smooth="yes"/>
      <point x="424.0" y="700.0"/>
      <point x="360.0" y="630.0"/>
      <point x="300.0" y="630.0" type="qcurve" smooth="yes"/>
      <point x="240.0" y="630.0"/>
      <point x="176.0" y="700.0"/>
    </contour>
  </outline>
</glyph>
<glyph name="fraction" format="2">
  <advance width="342"/>
  <unicode hex="2044"/>
  <guideline x="0" y="901.0" angle="0" identifier="tcCoNUQTdD"/>
  <guideline x="0" y="555.0" angle="0" identifier="0lx51aIE0d"/>
  <outline>
    <contour>
      <point x="607.0" y="1428.0" type="line"/>
      <point x="-228" y="6" type="line"/>
      <point x="-281" y="34.0" type="line"/>
      <point x="552" y="1456.0" type="line"/>
    </contour>
  </outline>
</glyph>
<glyph name="dollar.rvrn" format="2">
  <advance width="1201"/>
  <outline>
    <contour>
      <point x="219.0" y="423.0" type="qcurve" smooth="yes"/>
      <point x="219.0" y="435.0" type="line"/>
      <point x="293.0" y="435.0" type="line"/>
      <point x="293.0" y="423.0" type="line" smooth="yes"/>
      <point x="293.0" y="252.5"/>
      <point x="498.0" y="73.5"/>
      <point x="679.5" y="73.5" type="qcurve" smooth="yes"/>
      <point x="859.0" y="73.5"/>
      <point x="1056.5" y="241.0"/>
      <point x="1056.5" y="369.5" type="qcurve" smooth="yes"/>
      <point x="1056.5" y="489.5"/>
      <point x="922.5" y="638.0"/>
      <point x="682.0" y="700.5" type="qcurve" smooth="yes"/>
      <point x="441.5" y="760.0"/>
      <point x="249.5" y="941.5"/>
      <point x="249.5" y="1092.5" type="qcurve" smooth="yes"/>
      <point x="249.5" y="1248.5"/>
      <point x="464.5" y="1456.0"/>
      <point x="669.0" y="1456.0" type="qcurve" smooth="yes"/>
      <point x="867.0" y="1456.0"/>
      <point x="1101.5" y="1215.5"/>
      <point x="1101.5" y="1039.0" type="qcurve" smooth="yes"/>
      <point x="1101.5" y="1027.0" type="line"/>
      <point x="1024.5" y="1027.0" type="line"/>
      <point x="1024.5" y="1039.0" type="line" smooth="yes"/>
      <point x="1024.5" y="1189.5"/>
      <point x="846.0" y="1382.5"/>
      <point x="670.0" y="1382.5" type="qcurve" smooth="yes"/>
      <point x="491.5" y="1382.5"/>
      <point x="325.0" y="1228.5"/>
      <point x="325.0" y="1100.5" type="qcurve" smooth="yes"/>
      <point x="325.0" y="987.0"/>
      <point x="480.5" y="844.0"/>
      <point x="725.0" y="781.0" type="qcurve" smooth="yes"/>
      <point x="959.5" y="720.5"/>
      <point x="1133.0" y="534.5"/>
      <point x="1133.0" y="377.5" type="qcurve" smooth="yes"/>
      <point x="1133.0" y="211.5"/>
      <point x="890.5" y="0.0"/>
      <point x="679.5" y="0.0" type="qcurve" smooth="yes"/>
      <point x="472.5" y="0.0"/>
      <point x="219.0" y="225.5"/>
    </contour>
    <contour>
      <point x="638.5" y="-150.0" type="line"/>
      <point x="638.5" y="43.0" type="line"/>
      <point x="706.5" y="43.0" type="line"/>
      <point x="706.5" y="25.0" type="line"/>
      <point x="708.0" y="15.0" type="line"/>
      <point x="708.0" y="-150.0" type="line"/>
    </contour>
    <contour>
      <point x="639.0" y="1413.0" type="line"/>
      <point x="639.0" y="1431.0" type="line"/>
      <point x="636.5" y="1441.0" type="line"/>
      <point x="636.5" y="1606.0" type="line"/>
      <point x="704.0" y="1606.0" type="line"/>
      <point x="704.0" y="1413.0" type="line"/>
    </contour>
  </outline>
</glyph>
<glyph name="horncomb.case" format="2">
  <advance width="1024"/>
  <outline>
    <contour>
      <point x="382.0" y="1521.0" type="line"/>
      <point x="455.0" y="1521.0" type="line" smooth="yes"/>
      <point x="518.0" y="1521.0"/>
      <point x="593.0" y="1552.0"/>
      <point x="593.0" y="1609.0" type="qcurve" smooth="yes"/>
      <point x="593.0" y="1650.0"/>
      <point x="582.0" y="1723.0"/>
      <point x="573.0" y="1759.0" type="qcurve"/>
      <point x="723.0" y="1759.0" type="line"/>
      <point x="740.0" y="1728.0"/>
      <point x="774.0" y="1618.0"/>
      <point x="774.0" y="1559.0" type="qcurve" smooth="yes"/>
      <point x="774.0" y="1471.0"/>
      <point x="626.0" y="1379.0"/>
      <point x="530.0" y="1379.0" type="qcurve" smooth="yes"/>
      <point x="484.0" y="1379.0"/>
      <point x="408.0" y="1392.0"/>
      <point x="382.0" y="1402.0" type="qcurve"/>
    </contour>
  </outline>
</glyph>
<glyph name="zerosuperior" format="2">
  <advance width="608"/>
  <outline>
    <contour>
      <point x="73.5" y="976.0" type="qcurve" smooth="yes"/>
      <point x="73.5" y="1160.0" type="line" smooth="yes"/>
      <point x="73.5" y="1306.0"/>
      <point x="195.0" y="1476.0"/>
      <point x="305.0" y="1476.0" type="qcurve" smooth="yes"/>
      <point x="417.5" y="1476.0"/>
      <point x="534.0" y="1306.0"/>
      <point x="534.0" y="1160.0" type="qcurve" smooth="yes"/>
      <point x="534.0" y="976.0" type="line" smooth="yes"/>
      <point x="534.0" y="830.0"/>
      <point x="417.5" y="660.0"/>
      <point x="305.0" y="660.0" type="qcurve" smooth="yes"/>
      <point x="195.0" y="660.0"/>
      <point x="73.5" y="830.0"/>
    </contour>
    <contour>
      <point x="144.0" y="971.0" type="line" smooth="yes"/>
      <point x="144.0" y="855.0"/>
      <point x="215.0" y="715.0"/>
      <point x="305.0" y="715.0" type="qcurve" smooth="yes"/>
      <point x="397.0" y="715.0"/>
      <point x="463.5" y="855.0"/>
      <point x="463.5" y="971.0" type="qcurve" smooth="yes"/>
      <point x="463.5" y="1165.0" type="line" smooth="yes"/>
      <point x="463.5" y="1281.0"/>
      <point x="397.0" y="1421.0"/>
      <point x="305.0" y="1421.0" type="qcurve" smooth="yes"/>
      <point x="215.0" y="1421.0"/>
      <point x="144.0" y="1281.0"/>
      <point x="144.0" y="1165.0" type="qcurve" smooth="yes"/>
    </contour>
  </outline>
</glyph>
